<?xml version="1.0" encoding="UTF-8"?>
<svg width="22px" height="24px" viewBox="0 0 22 24" version="1.1" xmlns="http://www.w3.org/2000/svg" xmlns:xlink="http://www.w3.org/1999/xlink">
    <!-- Generator: Sketch 42 (36781) - http://www.bohemiancoding.com/sketch -->
    <title>Shape</title>
    <desc>Created with Sketch.</desc>
    <defs></defs>
    <g id="Symbols" stroke="none" stroke-width="1" fill="none" fill-rule="evenodd">
        <g id="Left_Side" transform="translate(-16.000000, -147.000000)" fill-rule="nonzero" fill="#5B82A8">
            <g id="Group-10">
                <g id="Group-13">
                    <path d="M37.3507128,152.459878 C37.3507128,152.371894 37.3311609,152.28391 37.292057,152.200815 C37.2138493,152.034623 37.0623218,151.9222 36.8961303,151.887984 L26.9393075,147.058656 C26.7780041,146.980448 26.5873727,146.980448 26.4260692,147.058656 L16.3714868,151.931976 C16.1759674,152.024847 16.0488798,152.220367 16.0391039,152.440326 L16.0391039,152.445214 L16.0391039,152.464766 L16.0391039,164.694501 C16.0391039,164.919348 16.1661914,165.124644 16.3714868,165.222403 L26.4260692,170.095723 C26.4309572,170.095723 26.4309572,170.095723 26.4358452,170.100611 C26.4505092,170.105499 26.4651731,170.110387 26.4798371,170.120163 C26.4847251,170.120163 26.489613,170.125051 26.499389,170.125051 C26.514053,170.129939 26.5287169,170.134827 26.5433809,170.139715 C26.5482688,170.139715 26.5531568,170.144603 26.5580448,170.144603 C26.5727088,170.149491 26.5922607,170.149491 26.6069246,170.154379 L26.6215886,170.154379 C26.6411405,170.154379 26.6655804,170.159267 26.6851324,170.159267 C26.7046843,170.159267 26.7291242,170.159267 26.7486762,170.154379 L26.7633401,170.154379 C26.7780041,170.154379 26.797556,170.149491 26.81222,170.144603 C26.8171079,170.144603 26.8219959,170.139715 26.8268839,170.139715 C26.8415479,170.134827 26.8562118,170.129939 26.8708758,170.125051 C26.8757637,170.125051 26.8806517,170.120163 26.8904277,170.120163 C26.9050916,170.115275 26.9197556,170.110387 26.9344196,170.100611 C26.9393075,170.100611 26.9393075,170.100611 26.9441955,170.095723 L37.0281059,165.207739 C37.2285132,165.10998 37.3604888,164.904684 37.3604888,164.679837 L37.3604888,152.474542 C37.3507128,152.469654 37.3507128,152.464766 37.3507128,152.459878 Z M26.6802444,148.23666 L35.4004073,152.464766 L32.189002,154.024033 L23.4688391,149.795927 L26.6802444,148.23666 Z M26.6802444,156.692872 L17.9600815,152.464766 L22.1246436,150.446029 L30.8448065,154.674134 L26.6802444,156.692872 Z M17.21222,153.408147 L26.0936864,157.71446 L26.0936864,168.629328 L17.21222,164.323014 L17.21222,153.408147 Z M27.2668024,168.629328 L27.2668024,157.71446 L31.4362525,155.690835 L31.4362525,158.545418 C31.4362525,158.868024 31.7002037,159.131976 32.0228106,159.131976 C32.3454175,159.131976 32.6093686,158.868024 32.6093686,158.545418 L32.6093686,155.118941 L36.1775967,153.388595 L36.1775967,164.303462 L27.2668024,168.629328 Z" id="Shape"></path>
                </g>
            </g>
        </g>
    </g>
</svg>