<?xml version="1.0" encoding="UTF-8"?>
<svg width="23px" height="21px" viewBox="0 0 23 21" version="1.1" xmlns="http://www.w3.org/2000/svg" xmlns:xlink="http://www.w3.org/1999/xlink">
    <!-- Generator: Sketch 42 (36781) - http://www.bohemiancoding.com/sketch -->
    <title>Combined Shape</title>
    <desc>Created with Sketch.</desc>
    <defs></defs>
    <g id="Symbols" stroke="none" stroke-width="1" fill="none" fill-rule="evenodd">
        <g id="Left_Side" transform="translate(-15.000000, -600.000000)" fill-rule="nonzero" fill="#5B82A8">
            <g id="Group-10">
                <g id="Group-13">
                    <path d="M23.5637475,604.21833 L26.0321792,606.041548 C26.1348269,606.119756 26.2570265,606.153971 26.3792261,606.153971 C26.5014257,606.153971 26.6236253,606.114868 26.7262729,606.041548 L29.1947047,604.21833 C29.3462322,604.105906 29.4342159,603.934827 29.4342159,603.744196 L29.4342159,600.586558 C29.4342159,600.263951 29.1702648,600 28.8476578,600 L23.9156823,600 C23.5930754,600 23.3291242,600.263951 23.3291242,600.586558 L23.3291242,603.744196 C23.3291242,603.929939 23.4171079,604.105906 23.5637475,604.21833 Z M24.5022403,601.173116 L28.2708758,601.173116 L28.2708758,603.446029 L26.3841141,604.839104 L24.5022403,603.450916 L24.5022403,601.173116 Z M35.3144603,602.492872 C36.6684318,602.492872 37.7682281,603.592668 37.7682281,604.94664 L37.7682281,617.89002 C37.7682281,619.243992 36.6684318,620.343788 35.3144603,620.343788 L17.4537678,620.343788 C16.0997963,620.343788 15,619.243992 15,617.89002 L15,604.94664 C15,603.592668 16.0997963,602.492872 17.4537678,602.492872 L21.8236253,602.492872 C22.1462322,602.492872 22.4101833,602.756823 22.4101833,603.07943 C22.4101833,603.402037 22.1462322,603.665988 21.8236253,603.665988 L17.4537678,603.665988 C16.7498982,603.665988 16.1731161,604.237882 16.1731161,604.94664 L16.1731161,617.89002 C16.1731161,618.59389 16.7450102,619.170672 17.4537678,619.170672 L35.3144603,619.170672 C36.0183299,619.170672 36.595112,618.598778 36.595112,617.89002 L36.595112,604.94664 C36.595112,604.24277 36.0232179,603.665988 35.3144603,603.665988 L30.9397149,603.665988 C30.6171079,603.665988 30.3531568,603.402037 30.3531568,603.07943 C30.3531568,602.756823 30.6171079,602.492872 30.9397149,602.492872 L35.3144603,602.492872 Z M19.2476578,608.637067 C19.2476578,607.507943 20.1665988,606.589002 21.295723,606.589002 C22.4248473,606.589002 23.3437882,607.507943 23.3437882,608.637067 C23.3437882,609.766191 22.4248473,610.685132 21.295723,610.685132 C20.1665988,610.685132 19.2476578,609.766191 19.2476578,608.637067 Z M22.1706721,608.637067 C22.1706721,608.153157 21.7796334,607.762118 21.295723,607.762118 C20.8118126,607.762118 20.4207739,608.153157 20.4207739,608.637067 C20.4207739,609.120978 20.8118126,609.512016 21.295723,609.512016 C21.7796334,609.512016 22.1706721,609.120978 22.1706721,608.637067 Z M21.295723,611.105499 C22.4541752,611.105499 23.392668,611.643177 24.008554,612.65499 C24.4484725,613.393075 24.7319756,614.380448 24.8443992,615.602444 C24.8737271,615.925051 24.6342159,616.208554 24.311609,616.237882 C24.292057,616.24277 24.2773931,616.24277 24.2578411,616.24277 C23.9596741,616.24277 23.705499,616.013035 23.6761711,615.70998 C23.4659878,613.432179 22.6643585,612.278615 21.295723,612.278615 C19.9270876,612.278615 19.1254582,613.432179 18.9152749,615.70998 C18.885947,616.032587 18.602444,616.272098 18.2798371,616.24277 C17.9572301,616.213442 17.7177189,615.929939 17.7470468,615.607332 C17.8594705,614.385336 18.1380855,613.393075 18.5828921,612.659878 C19.198778,611.643177 20.1372709,611.105499 21.295723,611.105499 Z M33.6378819,607.68391 C33.9604888,607.68391 34.2244399,607.947862 34.2244399,608.270468 C34.2244399,608.593075 33.9604888,608.857026 33.6378819,608.857026 L27.0879837,608.857026 C26.7653768,608.857026 26.5014257,608.593075 26.5014257,608.270468 C26.5014257,607.947862 26.7653768,607.68391 27.0879837,607.68391 L33.6378819,607.68391 Z M34.2244399,612.469246 C34.2244399,612.796741 33.9604888,613.055804 33.6378819,613.055804 L27.0879837,613.055804 C26.7653768,613.055804 26.5014257,612.791853 26.5014257,612.469246 C26.5014257,612.14664 26.7653768,611.882688 27.0879837,611.882688 L33.6378819,611.882688 C33.9604888,611.882688 34.2244399,612.14664 34.2244399,612.469246 Z M27.0879837,613.974745 L30.3629328,613.974745 C30.6855397,613.974745 30.9494908,614.238697 30.9494908,614.561303 C30.9494908,614.88391 30.6855397,615.147862 30.3629328,615.147862 L27.0879837,615.147862 C26.7653768,615.147862 26.5014257,614.88391 26.5014257,614.561303 C26.5014257,614.238697 26.7653768,613.974745 27.0879837,613.974745 Z M33.6378819,609.775967 C33.9604888,609.775967 34.2244399,610.039919 34.2244399,610.362525 C34.2244399,610.685132 33.9604888,610.949084 33.6378819,610.949084 L27.0879837,610.949084 C26.7653768,610.949084 26.5014257,610.685132 26.5014257,610.362525 C26.5014257,610.039919 26.7653768,609.775967 27.0879837,609.775967 L33.6378819,609.775967 Z" id="Combined-Shape"></path>
                </g>
            </g>
        </g>
    </g>
</svg>