<?xml version="1.0" encoding="UTF-8"?>
<svg width="24px" height="21px" viewBox="0 0 24 21" version="1.1" xmlns="http://www.w3.org/2000/svg" xmlns:xlink="http://www.w3.org/1999/xlink">
    <!-- Generator: Sketch 42 (36781) - http://www.bohemiancoding.com/sketch -->
    <title>Combined Shape</title>
    <desc>Created with Sketch.</desc>
    <defs></defs>
    <g id="Symbols" stroke="none" stroke-width="1" fill="none" fill-rule="evenodd">
        <g id="Left_Side" transform="translate(-15.000000, -547.000000)" fill-rule="nonzero" fill="#5B82A8">
            <g id="Group-10">
                <g id="Group-13">
                    <path d="M33.1979633,552.484318 C36.2285132,552.484318 38.5112016,551.306314 38.5112016,549.742159 C38.5112016,548.178004 36.2285132,547 33.1979633,547 C30.1674134,547 27.8847251,548.178004 27.8847251,549.742159 C27.8847251,551.306314 30.1674134,552.484318 33.1979633,552.484318 Z M33.1979633,548.178004 C35.7250509,548.178004 37.3380855,549.106721 37.3380855,549.747047 C37.3380855,550.387373 35.7250509,551.31609 33.1979633,551.31609 C30.6708758,551.31609 29.0578411,550.387373 29.0578411,549.747047 C29.0578411,549.106721 30.6708758,548.178004 33.1979633,548.178004 Z M38.0663951,552.538086 C38.3694501,552.650509 38.5258656,552.98778 38.4183299,553.285947 C38.1739308,553.955601 37.504277,554.517719 36.4875764,554.913646 C35.5637475,555.275356 34.4004073,555.470876 33.2028513,555.470876 C30.6904277,555.470876 28.6179226,554.654582 28.0460285,553.432587 C27.909165,553.139308 28.0362525,552.787373 28.3295316,552.650509 C28.6228106,552.513646 28.9747454,552.640733 29.111609,552.934012 C29.4244399,553.603666 31.0423625,554.29776 33.2028513,554.29776 C35.4219959,554.29776 37.0643585,553.564562 37.3136456,552.885132 C37.4260692,552.582077 37.7633401,552.425662 38.0663951,552.538086 Z M38.0663951,555.529532 C38.3694501,555.641955 38.5258656,555.979226 38.4183299,556.277393 C38.1739308,556.947047 37.504277,557.509165 36.4875764,557.905092 C35.5637475,558.266802 34.4004073,558.462322 33.2028513,558.462322 C30.6904277,558.462322 28.6179226,557.646029 28.0460285,556.424033 C27.909165,556.130754 28.0362525,555.778819 28.3295316,555.641955 C28.6228106,555.505092 28.9747454,555.632179 29.111609,555.925458 C29.4244399,556.595112 31.0423625,557.289206 33.2028513,557.289206 C35.4219959,557.289206 37.0643585,556.556008 37.3136456,555.876578 C37.4260692,555.573523 37.7633401,555.417108 38.0663951,555.529532 Z M38.0663951,558.51609 C38.3694501,558.628513 38.5258656,558.965784 38.4183299,559.263951 C38.1739308,559.933605 37.504277,560.495723 36.4875764,560.89165 C35.5637475,561.25336 34.4004073,561.44888 33.2028513,561.44888 C30.6904277,561.44888 28.6179226,560.632587 28.0460285,559.410591 C27.909165,559.117312 28.0362525,558.765377 28.3295316,558.628513 C28.6228106,558.49165 28.9747454,558.618737 29.111609,558.912016 C29.4244399,559.58167 31.0423625,560.275764 33.2028513,560.275764 C35.4219959,560.275764 37.0643585,559.542566 37.3136456,558.863136 C37.4260692,558.560081 37.7633401,558.403666 38.0663951,558.51609 Z M38.0663951,561.507536 C38.3694501,561.615071 38.5258656,561.952342 38.4183299,562.255397 C38.1739308,562.925051 37.504277,563.487169 36.4875764,563.883096 C35.5637475,564.244807 34.4004073,564.440326 33.2028513,564.440326 C30.6904277,564.440326 28.6179226,563.624033 28.0460285,562.402037 C27.909165,562.108758 28.0362525,561.756823 28.3295316,561.619959 C28.6228106,561.483096 28.9747454,561.610183 29.111609,561.903462 C29.4244399,562.573116 31.0423625,563.26721 33.2028513,563.26721 C35.4219959,563.26721 37.0643585,562.534012 37.3136456,561.854582 C37.4260692,561.551527 37.7633401,561.395112 38.0663951,561.507536 Z M38.0663951,564.494094 C38.3694501,564.606517 38.5258656,564.943788 38.4183299,565.241955 C38.1739308,565.911609 37.504277,566.473727 36.4875764,566.869654 C35.5637475,567.231365 34.4004073,567.426884 33.2028513,567.426884 C30.6904277,567.426884 28.6179226,566.610591 28.0460285,565.388595 C27.909165,565.095316 28.0362525,564.743381 28.3295316,564.606517 C28.6228106,564.469654 28.9747454,564.596741 29.111609,564.89002 C29.4244399,565.559674 31.0423625,566.253768 33.2028513,566.253768 C35.4219959,566.253768 37.0643585,565.52057 37.3136456,564.841141 C37.4260692,564.538086 37.7633401,564.38167 38.0663951,564.494094 Z M25.1767821,558.51609 C25.4798371,558.628513 25.6362525,558.965784 25.5287169,559.263951 C25.2843177,559.933605 24.614664,560.495723 23.5979633,560.89165 C22.6741344,561.25336 21.5107943,561.44888 20.3132383,561.44888 C17.8008147,561.44888 15.7283096,560.632587 15.1564155,559.410591 C15.0195519,559.117312 15.1466395,558.765377 15.4399185,558.628513 C15.7331976,558.49165 16.0851324,558.618737 16.2219959,558.912016 C16.5348269,559.58167 18.1527495,560.275764 20.3132383,560.275764 C22.5323829,560.275764 24.1747454,559.542566 24.4240326,558.863136 C24.5364562,558.560081 24.8737271,558.403666 25.1767821,558.51609 Z M25.1767821,561.507536 C25.4798371,561.615071 25.6362525,561.952342 25.5287169,562.255397 C25.2843177,562.925051 24.614664,563.487169 23.5979633,563.883096 C22.6741344,564.244807 21.5107943,564.440326 20.3132383,564.440326 C17.8008147,564.440326 15.7283096,563.624033 15.1564155,562.402037 C15.0195519,562.108758 15.1466395,561.756823 15.4399185,561.619959 C15.7331976,561.483096 16.0851324,561.610183 16.2219959,561.903462 C16.5348269,562.573116 18.1527495,563.26721 20.3132383,563.26721 C22.5323829,563.26721 24.1747454,562.534012 24.4240326,561.854582 C24.5364562,561.551527 24.8737271,561.395112 25.1767821,561.507536 Z M25.1767821,564.494094 C25.4798371,564.606517 25.6362525,564.943788 25.5287169,565.241955 C25.2843177,565.911609 24.614664,566.473727 23.5979633,566.869654 C22.6741344,567.231365 21.5107943,567.426884 20.3132383,567.426884 C17.8008147,567.426884 15.7283096,566.610591 15.1564155,565.388595 C15.0195519,565.095316 15.1466395,564.743381 15.4399185,564.606517 C15.7331976,564.469654 16.0851324,564.596741 16.2219959,564.89002 C16.5348269,565.559674 18.1527495,566.253768 20.3132383,566.253768 C22.5323829,566.253768 24.1747454,565.52057 24.4240326,564.841141 C24.5364562,564.538086 24.8737271,564.38167 25.1767821,564.494094 Z M20.3132383,552.978004 C23.3437882,552.978004 25.6264766,554.156008 25.6264766,555.720163 C25.6264766,557.284318 23.3437882,558.462322 20.3132383,558.462322 C17.2826884,558.462322 15,557.284318 15,555.720163 C15,554.156008 17.2826884,552.978004 20.3132383,552.978004 Z M20.3132383,557.289206 C22.8403259,557.289206 24.4533605,556.360489 24.4533605,555.720163 C24.4533605,555.079837 22.8403259,554.15112 20.3132383,554.15112 C17.7861507,554.15112 16.1731161,555.079837 16.1731161,555.720163 C16.1731161,556.360489 17.7861507,557.289206 20.3132383,557.289206 Z" id="Combined-Shape"></path>
                </g>
            </g>
        </g>
    </g>
</svg>