<?xml version="1.0" encoding="UTF-8"?>
<svg width="23px" height="23px" viewBox="0 0 23 23" version="1.1" xmlns="http://www.w3.org/2000/svg" xmlns:xlink="http://www.w3.org/1999/xlink">
    <!-- Generator: Sketch 42 (36781) - http://www.bohemiancoding.com/sketch -->
    <title>Combined Shape</title>
    <desc>Created with Sketch.</desc>
    <defs></defs>
    <g id="Symbols" stroke="none" stroke-width="1" fill="none" fill-rule="evenodd">
        <g id="Left_Side" transform="translate(-15.000000, -207.000000)" fill-rule="nonzero" fill="#5B82A8">
            <g id="Group-10">
                <g id="Group-13">
                    <path d="M36.6219959,207 L15.603666,207 C15.2810591,207 15.0171079,207.263951 15.0171079,207.586558 C15.0171079,207.909165 15.2810591,208.173116 15.603666,208.173116 L16.8696538,208.173116 L16.8696538,229.308758 C16.8696538,229.523829 16.9869654,229.724236 17.1775967,229.826884 C17.3682281,229.929532 17.5979633,229.919756 17.7788187,229.797556 L20.3254582,228.101426 L22.8818737,229.802444 C23.0773931,229.93442 23.3364562,229.93442 23.5319756,229.802444 L26.0786151,228.106314 L28.6350305,229.807332 C28.8305499,229.939308 29.089613,229.939308 29.2851324,229.807332 L31.8317719,228.111202 L34.3881874,229.81222 C34.485947,229.875764 34.5983707,229.90998 34.7107943,229.90998 C34.803666,229.90998 34.9014257,229.88554 34.9894094,229.841548 C35.1800407,229.7389 35.2973523,229.538493 35.2973523,229.323422 L35.2875764,208.18778 L36.6219959,208.18778 C36.9446029,208.18778 37.208554,207.923829 37.208554,207.601222 C37.208554,207.278615 36.9446029,207 36.6219959,207 Z M34.1291242,228.213849 L32.1592668,226.90387 C31.9637475,226.771894 31.7046843,226.771894 31.509165,226.90387 L28.9625255,228.604888 L26.40611,226.90387 C26.2105906,226.771894 25.9515275,226.771894 25.7560081,226.90387 L23.2093686,228.6 L20.6529532,226.90387 C20.4574338,226.771894 20.1983707,226.771894 20.0028513,226.90387 L18.0427699,228.208961 L18.0427699,208.168228 L34.1242363,208.168228 L34.1291242,228.213849 Z M20.7409369,216.365377 L26.8851324,216.365377 C27.2077393,216.365377 27.4716904,216.101426 27.4716904,215.778819 C27.4716904,215.456212 27.2077393,215.192261 26.8851324,215.192261 L20.7409369,215.192261 C20.4183299,215.192261 20.1543788,215.456212 20.1543788,215.778819 C20.1543788,216.101426 20.413442,216.365377 20.7409369,216.365377 Z M20.7409369,218.403666 L25.3454175,218.403666 C25.6680244,218.403666 25.9319756,218.139715 25.9319756,217.817108 C25.9319756,217.494501 25.6680244,217.23055 25.3454175,217.23055 L20.7409369,217.23055 C20.4183299,217.23055 20.1543788,217.494501 20.1543788,217.817108 C20.1543788,218.139715 20.413442,218.403666 20.7409369,218.403666 Z M29.9547862,216.365377 L31.489613,216.365377 C31.81222,216.365377 32.0761711,216.101426 32.0761711,215.778819 C32.0761711,215.456212 31.81222,215.192261 31.489613,215.192261 L29.9547862,215.192261 C29.6321792,215.192261 29.3682281,215.456212 29.3682281,215.778819 C29.3682281,216.101426 29.6272912,216.365377 29.9547862,216.365377 Z M29.9547862,218.403666 L31.489613,218.403666 C31.81222,218.403666 32.0761711,218.139715 32.0761711,217.817108 C32.0761711,217.494501 31.81222,217.23055 31.489613,217.23055 L29.9547862,217.23055 C29.6321792,217.23055 29.3682281,217.494501 29.3682281,217.817108 C29.3682281,218.139715 29.6272912,218.403666 29.9547862,218.403666 Z M20.7409369,211.658248 L26.8851324,211.658248 C27.2077393,211.658248 27.4716904,211.394297 27.4716904,211.07169 C27.4716904,210.749084 27.2077393,210.485132 26.8851324,210.485132 L20.7409369,210.485132 C20.4183299,210.485132 20.1543788,210.749084 20.1543788,211.07169 C20.1543788,211.394297 20.413442,211.658248 20.7409369,211.658248 Z M20.7409369,213.69165 L25.3454175,213.69165 C25.6680244,213.69165 25.9319756,213.427699 25.9319756,213.105092 C25.9319756,212.782485 25.6680244,212.518534 25.3454175,212.518534 L20.7409369,212.518534 C20.4183299,212.518534 20.1543788,212.782485 20.1543788,213.105092 C20.1543788,213.427699 20.413442,213.69165 20.7409369,213.69165 Z M29.9547862,211.658248 L31.489613,211.658248 C31.81222,211.658248 32.0761711,211.394297 32.0761711,211.07169 C32.0761711,210.749084 31.81222,210.485132 31.489613,210.485132 L29.9547862,210.485132 C29.6321792,210.485132 29.3682281,210.749084 29.3682281,211.07169 C29.3682281,211.394297 29.6272912,211.658248 29.9547862,211.658248 Z M29.9547862,213.69165 L31.489613,213.69165 C31.81222,213.69165 32.0761711,213.427699 32.0761711,213.105092 C32.0761711,212.782485 31.81222,212.518534 31.489613,212.518534 L29.9547862,212.518534 C29.6321792,212.518534 29.3682281,212.782485 29.3682281,213.105092 C29.3682281,213.427699 29.6272912,213.69165 29.9547862,213.69165 Z M20.7409369,221.131161 L26.8851324,221.131161 C27.2077393,221.131161 27.4716904,220.86721 27.4716904,220.544603 C27.4716904,220.221996 27.2077393,219.958045 26.8851324,219.958045 L20.7409369,219.958045 C20.4183299,219.958045 20.1543788,220.221996 20.1543788,220.544603 C20.1543788,220.86721 20.413442,221.131161 20.7409369,221.131161 Z M20.7409369,223.164562 L25.3454175,223.164562 C25.6680244,223.164562 25.9319756,222.900611 25.9319756,222.578004 C25.9319756,222.255397 25.6680244,221.991446 25.3454175,221.991446 L20.7409369,221.991446 C20.4183299,221.991446 20.1543788,222.255397 20.1543788,222.578004 C20.1543788,222.900611 20.413442,223.164562 20.7409369,223.164562 Z M29.9547862,221.131161 L31.489613,221.131161 C31.81222,221.131161 32.0761711,220.86721 32.0761711,220.544603 C32.0761711,220.221996 31.81222,219.958045 31.489613,219.958045 L29.9547862,219.958045 C29.6321792,219.958045 29.3682281,220.221996 29.3682281,220.544603 C29.3682281,220.86721 29.6272912,221.131161 29.9547862,221.131161 Z M29.9547862,223.164562 L31.489613,223.164562 C31.81222,223.164562 32.0761711,222.900611 32.0761711,222.578004 C32.0761711,222.255397 31.81222,221.991446 31.489613,221.991446 L29.9547862,221.991446 C29.6321792,221.991446 29.3682281,222.255397 29.3682281,222.578004 C29.3682281,222.900611 29.6272912,223.164562 29.9547862,223.164562 Z" id="Combined-Shape"></path>
                </g>
            </g>
        </g>
    </g>
</svg>