<?xml version="1.0" encoding="UTF-8"?>
<svg width="28px" height="14px" viewBox="0 0 28 14" version="1.1" xmlns="http://www.w3.org/2000/svg" xmlns:xlink="http://www.w3.org/1999/xlink">
    <!-- Generator: Sketch 42 (36781) - http://www.bohemiancoding.com/sketch -->
    <title>Shape</title>
    <desc>Created with Sketch.</desc>
    <defs></defs>
    <g id="Symbols" stroke="none" stroke-width="1" fill="none" fill-rule="evenodd">
        <g id="Left_Side" transform="translate(-13.000000, -100.000000)" fill-rule="nonzero" fill="#5B82A8">
            <g id="Group-10">
                <g id="Group-13">
                    <path d="M37.9782378,100.03717 C36.3421209,100.03717 35.0110565,101.368234 35.0110565,103.004351 C35.0110565,103.601084 35.1887173,104.156772 35.4930604,104.622511 L32.2873606,107.828211 C31.8215673,107.523867 31.2658791,107.346207 30.6691462,107.346207 C30.0507992,107.346207 29.476117,107.536585 29.0002807,107.861505 L25.7615595,104.622292 C26.065848,104.156554 26.2433996,103.60092 26.2433996,103.004296 C26.2433996,101.368179 24.9123353,100.037115 23.2762183,100.037115 C21.6401014,100.037115 20.309037,101.368179 20.309037,103.004296 C20.309037,103.60092 20.4866433,104.15639 20.7908226,104.622129 L17.5850136,107.827992 C17.1193294,107.523758 16.5637505,107.346207 15.9671813,107.346207 C14.3310643,107.346207 13,108.677326 13,110.313442 C13,111.949559 14.3310643,113.280624 15.9671813,113.280624 C17.6032982,113.280624 18.9343626,111.949559 18.9343626,110.313442 C18.9343626,109.71671 18.7567018,109.161021 18.4523587,108.695228 L21.6580585,105.489528 C22.1238519,105.793871 22.67954,105.971532 23.2762729,105.971532 C23.8729513,105.971532 24.4286394,105.793871 24.8943782,105.489528 L28.1510019,108.746589 C27.8668538,109.201684 27.7020195,109.738542 27.7020195,110.313388 C27.7020195,111.949505 29.0330838,113.280569 30.6692008,113.280569 C32.3053177,113.280569 33.6363821,111.949505 33.6363821,110.313388 C33.6363821,109.716764 33.4587758,109.16124 33.1545965,108.695556 L36.36046,105.489692 C36.8261988,105.793926 37.3817778,105.971478 37.9782924,105.971478 C39.6144094,105.971478 40.9454737,104.640413 40.9454737,103.004296 C40.9454737,101.368125 39.6143548,100.03717 37.9782378,100.03717 Z M15.9671813,112.054136 C15.0073216,112.054136 14.2264327,111.273248 14.2264327,110.313442 C14.2264327,109.353583 15.0073216,108.572694 15.9671813,108.572694 C16.9269864,108.572694 17.7079298,109.353583 17.7079298,110.313442 C17.7079298,111.273248 16.9270409,112.054136 15.9671813,112.054136 Z M23.2762729,104.745045 C22.3164678,104.745045 21.5355244,103.964156 21.5355244,103.004296 C21.5355244,102.044491 22.3164133,101.263548 23.2762729,101.263548 C24.2361326,101.263548 25.0170214,102.044437 25.0170214,103.004296 C25.0170214,103.964156 24.2361326,104.745045 23.2762729,104.745045 Z M30.6691462,112.054136 C29.7093411,112.054136 28.9283977,111.273248 28.9283977,110.313388 C28.9283977,109.353528 29.7092865,108.572639 30.6691462,108.572639 C31.6289513,108.572639 32.4098947,109.353528 32.4098947,110.313388 C32.4098402,111.273248 31.6289513,112.054136 30.6691462,112.054136 Z M37.9782378,104.745045 C37.0184327,104.745045 36.2374893,103.964156 36.2374893,103.004296 C36.2374893,102.044491 37.0183782,101.263548 37.9782378,101.263548 C38.9380429,101.263548 39.7189864,102.044437 39.7189864,103.004296 C39.7189864,103.964156 38.9380429,104.745045 37.9782378,104.745045 Z" id="Shape"></path>
                </g>
            </g>
        </g>
    </g>
</svg>