<?xml version="1.0" encoding="UTF-8"?>
<svg width="24px" height="21px" viewBox="0 0 24 21" version="1.1" xmlns="http://www.w3.org/2000/svg" xmlns:xlink="http://www.w3.org/1999/xlink">
    <!-- Generator: Sketch 42 (36781) - http://www.bohemiancoding.com/sketch -->
    <title>Combined Shape</title>
    <desc>Created with Sketch.</desc>
    <defs></defs>
    <g id="Symbols" stroke="none" stroke-width="1" fill="none" fill-rule="evenodd">
        <g id="Left_Side" transform="translate(-15.000000, -493.000000)" fill-rule="nonzero" fill="#5B82A8">
            <g id="Group-10">
                <g id="Group-13">
                    <path d="M31.9955193,504.374338 L28.7450102,504.374338 C27.8553971,504.374338 27.1319756,505.09776 27.1319756,505.987373 L27.1319756,508.480244 C27.1319756,509.369857 27.8553971,510.093279 28.7450102,510.093279 L31.9955193,510.093279 C32.8851324,510.093279 33.608554,509.369857 33.608554,508.480244 L33.608554,505.987373 C33.608554,505.09776 32.8851324,504.374338 31.9955193,504.374338 Z M38.9217923,499.843177 C38.9217923,501.250916 38.0712831,502.458248 36.8590631,502.991039 C36.8639511,503.010591 36.8639511,503.030143 36.8639511,503.054582 L36.8639511,513.299796 C36.8639511,513.622403 36.6,513.886354 36.2773931,513.886354 L25.4553971,513.886354 L25.4407332,513.886354 L20.8949084,513.886354 L20.8802444,513.886354 L17.6395112,513.886354 C17.3169043,513.886354 17.0529532,513.622403 17.0529532,513.299796 L17.0529532,502.981263 C15.8456212,502.448473 15,501.246029 15,499.843177 C15,499.74053 15.0293279,499.64277 15.0782077,499.554786 L18.6317719,493.298167 C18.7344196,493.112424 18.9299389,493 19.1401222,493 L34.7767821,493 C34.9869654,493 35.1824847,493.117312 35.2851324,493.298167 L38.8435845,499.554786 C38.8973523,499.64277 38.9217923,499.74053 38.9217923,499.843177 Z M19.4822811,494.178004 L16.7059063,499.070876 L37.2158859,499.070876 L34.4346232,494.178004 L19.4822811,494.178004 Z M32.0248473,500.239104 L27.586558,500.239104 C27.7723014,501.294908 28.6961303,502.096538 29.8057026,502.096538 C30.9152749,502.096538 31.8391039,501.294908 32.0248473,500.239104 Z M26.3401222,500.239104 L21.896945,500.239104 C22.0875764,501.294908 23.0114053,502.096538 24.1209776,502.096538 C25.2305499,502.096538 26.1543788,501.294908 26.3401222,500.239104 Z M16.21222,500.239104 C16.3979633,501.294908 17.3217923,502.101426 18.4313646,502.096538 C19.5409369,502.096538 20.4696538,501.294908 20.6553971,500.239104 L16.21222,500.239104 Z M24.8541752,512.713238 L24.8590631,512.713238 L24.8590631,506.383299 C24.8590631,505.918941 24.4826884,505.547454 24.0232179,505.547454 L22.3173116,505.547454 C21.8529532,505.547454 21.4814664,505.923829 21.4814664,506.383299 L21.4814664,512.713238 L24.8541752,512.713238 Z M32.4354379,508.480244 C32.4354379,508.724644 32.2350305,508.920163 31.9955193,508.920163 L28.7450102,508.920163 C28.500611,508.920163 28.3050916,508.719756 28.3050916,508.480244 L28.3050916,505.987373 C28.3050916,505.742974 28.505499,505.547454 28.7450102,505.547454 L31.9955193,505.547454 C32.2399185,505.547454 32.4354379,505.747862 32.4354379,505.987373 L32.4354379,508.480244 Z M35.690835,512.713238 L35.690835,503.269654 C35.6224033,503.269654 35.5588595,503.274542 35.4904277,503.274542 C34.3075356,503.274542 33.2615071,502.67332 32.6456212,501.759267 C32.0297352,502.67332 30.9885947,503.274542 29.8057026,503.274542 C28.6276986,503.274542 27.5816701,502.67332 26.9657841,501.759267 C26.3450102,502.67332 25.3038697,503.274542 24.1209776,503.274542 C22.9380855,503.274542 21.892057,502.67332 21.2761711,501.759267 C20.6602851,502.67332 19.6142566,503.274542 18.4313646,503.274542 C18.3629328,503.274542 18.294501,503.274542 18.2260692,503.269654 L18.2260692,512.718126 L20.3034623,512.718126 L20.3034623,506.383299 C20.3034623,505.273727 21.2077393,504.374338 22.3124236,504.374338 L24.0183299,504.374338 C25.1279022,504.374338 26.0272912,505.278615 26.0272912,506.383299 L26.0272912,512.713238 L35.690835,512.713238 Z M35.4904277,502.101426 C36.6,502.101426 37.5238289,501.294908 37.7144603,500.243992 L33.2712831,500.243992 C33.4570265,501.299796 34.3808554,502.101426 35.4904277,502.101426 Z" id="Combined-Shape"></path>
                </g>
            </g>
        </g>
    </g>
</svg>