<?xml version="1.0" encoding="UTF-8"?>
<svg width="24px" height="24px" viewBox="0 0 24 24" version="1.1" xmlns="http://www.w3.org/2000/svg" xmlns:xlink="http://www.w3.org/1999/xlink">
    <!-- Generator: Sketch 42 (36781) - http://www.bohemiancoding.com/sketch -->
    <title>Combined Shape</title>
    <desc>Created with Sketch.</desc>
    <defs></defs>
    <g id="Symbols" stroke="none" stroke-width="1" fill="none" fill-rule="evenodd">
        <g id="Left_Side" transform="translate(-15.000000, -654.000000)" fill-rule="nonzero" fill="#5B82A8">
            <g id="Group-10">
                <g id="Group-13">
                    <path d="M27.0594627,670.659224 C29.7385075,670.659224 31.9178507,668.479881 31.9178507,665.801194 C31.9178507,663.122149 29.7381493,660.942448 27.0594627,660.942448 C24.3804179,660.942448 22.2010746,663.122149 22.2010746,665.801194 C22.2010746,668.479881 24.3804179,670.659224 27.0594627,670.659224 Z M16.5578507,668.686567 C15.7278806,668.686567 15,667.929672 15,667.115104 L15,664.778507 C15,663.961075 15.713194,663.313433 16.5578507,663.313433 L18.2776119,663.313433 C18.4459701,662.597015 18.6723582,662.158209 18.9682388,661.630925 L17.753194,660.395104 C17.1703881,659.81194 17.1700299,658.863403 17.7521194,658.280597 L19.4023881,656.628537 C19.6853731,656.34591 20.0604179,656.190448 20.4580299,656.190448 C20.856,656.190448 21.2306866,656.345552 21.5129552,656.628179 L22.7247761,657.846448 C23.2746269,657.567045 23.8513433,657.34997 24.3134328,657.196657 L24.3134328,655.431761 C24.3134328,654.632597 25.0420299,654 25.9049552,654 L28.2415522,654 C29.0654328,654 29.6865672,654.612537 29.6865672,655.453254 L29.6890746,657.205612 C30.2693731,657.386507 30.8306866,657.622567 31.3497313,657.903403 L32.6253134,656.628179 C32.9079403,656.34591 33.2837015,656.191164 33.6823881,656.191164 C34.081791,656.191164 34.457194,656.347701 34.7394627,656.630328 L36.3918806,658.285254 C36.9746866,658.868418 36.9746866,659.822328 36.3922388,660.405134 L35.0690149,661.739104 C35.3254925,662.237015 35.5343284,662.597015 35.6937313,663.313433 L37.5882985,663.313433 C38.393194,663.313433 39,663.918806 39,664.778507 L39,667.115104 C39,667.986985 38.393194,668.686567 37.5879403,668.686567 L35.6367761,668.686567 C35.473791,669.044776 35.2660299,669.663761 35.0163582,670.134806 L35.048597,670.156299 L36.3911642,671.499582 C36.9732537,672.081672 36.9728955,673.030209 36.3904478,673.613731 L34.7351642,675.266149 C34.4532537,675.54806 34.0771343,675.703522 33.6766567,675.703522 C33.2761791,675.703522 32.9000597,675.54806 32.6174328,675.266149 L31.2311642,673.887761 C30.7633433,674.154985 30.2987463,674.373851 29.6865672,674.542209 L29.6865672,676.461851 C29.6865672,677.300418 29.0521791,678 28.241194,678 L25.904597,678 C25.0570746,678 24.3134328,677.279642 24.3134328,676.483343 L24.3209552,674.547582 C23.8183881,674.393194 23.3301493,674.192239 22.8469254,673.940418 L21.521194,675.266507 C21.2396418,675.548418 20.8638806,675.704597 20.4644776,675.704597 C20.0650746,675.704597 19.6896716,675.550567 19.4070448,675.268657 L17.7546269,673.618746 C17.1714627,673.035224 17.1718209,672.091701 17.7546269,671.509612 L19.032,670.242627 C18.7558209,669.738985 18.5287164,669.402985 18.3535522,668.686567 L16.5578507,668.686567 Z M27.0594627,662.374925 C28.9482985,662.374925 30.4850149,663.912 30.4850149,665.800836 C30.4850149,667.689313 28.9482985,669.22603 27.0594627,669.22603 C25.1706269,669.22603 23.6339104,667.689313 23.6339104,665.800836 C23.6339104,663.911642 25.1706269,662.374925 27.0594627,662.374925 Z M16.5578507,664.746269 C16.5077015,664.746269 16.4410746,664.783522 16.4317612,664.812896 L16.4324776,667.125493 C16.4407164,667.160597 16.5166567,667.233313 16.5574925,667.233313 L18.889791,667.253731 L18.8922985,667.253731 C19.2200597,667.253731 19.5062687,667.45397 19.5875821,667.77206 C19.784597,668.551522 20.1037612,669.269731 20.535403,669.950687 C20.7145075,670.233313 20.6743881,670.601194 20.439403,670.838328 L18.768,672.512597 C18.7432836,672.536955 18.7436418,672.576716 18.768,672.600716 L20.4197015,674.252776 C20.4433433,674.27606 20.4834627,674.277134 20.5074627,674.253134 L22.2343881,672.540179 C22.3715821,672.408 22.5506866,672.340299 22.7312239,672.340299 C22.8569552,672.340299 22.983403,672.37397 23.0969552,672.441672 C23.7915224,672.854328 24.4864478,673.139104 25.2211343,673.310687 C25.5557015,673.388418 25.7881791,673.695045 25.7745672,674.038567 L25.7459104,674.772179 L25.7462687,676.483343 C25.7573731,676.489791 25.8404776,676.567164 25.904597,676.567164 L28.241194,676.567164 L28.248,676.567164 C28.2426269,676.567164 28.2537313,676.50197 28.2537313,676.461851 L28.2537313,673.973731 C28.2537313,673.630925 28.4969552,673.335761 28.8333134,673.270209 C29.7779104,673.086448 30.2557612,672.812776 30.9574925,672.381851 C31.2354627,672.211343 31.5936716,672.249313 31.8286567,672.475701 L32.2348657,672.865433 L33.6290149,674.250627 C33.6555224,674.277851 33.6985075,674.276418 33.7225075,674.252418 L35.3774328,672.600358 C35.4010746,672.576358 35.401791,672.536955 35.377791,672.512955 L34.001194,671.136 C33.9782687,671.113791 33.9574925,671.090866 33.9381493,671.065433 L33.5903284,670.611224 C33.4119403,670.377313 33.3947463,670.063881 33.5462687,669.812776 C33.9320597,669.172657 34.2200597,668.493851 34.4031045,667.772418 C34.4837015,667.455045 34.7695522,667.253731 35.0973134,667.253731 L37.5506866,667.253731 C37.5589254,667.253731 37.5671642,667.158806 37.5671642,667.115104 L37.5671642,664.778507 C37.5671642,664.745552 37.5621493,664.746269 37.5571343,664.746269 L35.1417313,664.746269 C34.8078806,664.746269 34.5180896,664.493731 34.4442985,664.168836 C34.2669851,663.396179 33.9703881,662.637134 33.5623881,661.954388 C33.3922388,661.669254 33.4402388,661.304597 33.6784478,661.073194 L34.009791,660.751522 L35.3792239,659.38209 C35.4032239,659.357731 35.4032239,659.317612 35.3788657,659.293254 L33.726806,657.641552 C33.7024478,657.616836 33.6623284,657.617194 33.6386866,657.641552 L31.9894925,659.301851 C31.7534328,659.54794 31.3769552,659.593433 31.0882388,659.410388 C30.4219701,658.986985 29.6407164,658.655284 28.8282985,658.451821 C28.5238209,658.375522 28.3049552,658.11009 28.287403,657.797015 L28.254806,657.221373 C28.2540896,657.208119 28.2537313,657.194866 28.2537313,657.181254 L28.2537313,655.431761 C28.2537313,655.401672 28.2472836,655.385552 28.2447761,655.381612 L25.904597,655.390209 C25.839403,655.390209 25.7717015,655.430328 25.7462687,655.45791 L25.7462687,657.72394 C25.7462687,658.043104 25.5356418,658.323582 25.2290149,658.412418 C24.7060299,658.56394 23.7148657,658.888478 22.9529552,659.358806 C22.6513433,659.545791 22.2580299,659.482746 22.0291343,659.211582 L21.8471642,658.996299 L20.4985075,657.640119 C20.4920597,657.63403 20.4247164,657.632955 20.4157612,657.642269 L18.766209,659.294687 C18.7418507,659.319045 18.742209,659.359881 18.7665672,659.384597 L20.3555821,660.952119 C20.6138507,661.183522 20.6693731,661.572179 20.4870448,661.867343 C20.0167164,662.629254 19.7283582,663.226746 19.5517612,664.143761 C19.4869254,664.481194 19.1917612,664.746269 18.8482388,664.746269 L16.5578507,664.746269 Z" id="Combined-Shape"></path>
                </g>
            </g>
        </g>
    </g>
</svg>