<?xml version="1.0" encoding="UTF-8"?>
<svg width="24px" height="21px" viewBox="0 0 24 21" version="1.1" xmlns="http://www.w3.org/2000/svg" xmlns:xlink="http://www.w3.org/1999/xlink">
    <!-- Generator: Sketch 42 (36781) - http://www.bohemiancoding.com/sketch -->
    <title>Shape</title>
    <desc>Created with Sketch.</desc>
    <defs></defs>
    <g id="Symbols" stroke="none" stroke-width="1" fill="none" fill-rule="evenodd">
        <g id="Left_Side" transform="translate(-15.000000, -439.000000)" fill-rule="nonzero" fill="#5B82A8">
            <g id="Group-10">
                <g id="Group-13">
                    <path d="M37.499389,447.89613 L36.9323829,447.89613 L36.9323829,444.489206 C36.9323829,443.09613 35.7983707,441.967006 34.4101833,441.967006 L33.887169,441.967006 L33.892057,440.701018 C33.892057,439.762525 33.1295316,439 32.1910387,439 L17.0676171,439 C15.9384929,439 15.014664,439.909165 15,441.038289 L15,441.067617 L15,457.755193 C15,458.693686 15.7625255,459.456212 16.7010183,459.456212 L34.4150713,459.456212 C35.8081466,459.456212 36.9372709,458.3222 36.9372709,456.934012 L36.9372709,453.5222 L37.504277,453.5222 C38.2374745,453.5222 38.8338086,452.925866 38.8338086,452.192668 L38.8338086,449.225662 C38.8289206,448.492464 38.2325866,447.89613 37.499389,447.89613 Z M17.0676171,440.173116 L32.1910387,440.173116 C32.4794297,440.173116 32.7189409,440.407739 32.7189409,440.69613 L32.714053,441.967006 L17.0676171,441.967006 C16.5739308,441.967006 16.1731161,441.566191 16.1731161,441.072505 C16.1731161,440.578819 16.5739308,440.173116 17.0676171,440.173116 Z M35.7592668,456.929124 C35.7592668,457.672098 35.1531568,458.278208 34.4101833,458.278208 L16.6961303,458.278208 C16.4077393,458.278208 16.1682281,458.043585 16.1682281,457.750305 L16.1682281,442.934827 C16.4419552,443.066802 16.7450102,443.140122 17.0676171,443.140122 L34.4101833,443.140122 C35.1531568,443.140122 35.7592668,443.746232 35.7592668,444.489206 L35.7592668,447.89613 L31.7560081,447.89613 C31.0228106,447.89613 30.4264766,448.492464 30.4264766,449.225662 L30.4264766,452.192668 C30.4264766,452.925866 31.0228106,453.5222 31.7560081,453.5222 L35.7592668,453.5222 L35.7592668,456.929124 L35.7592668,456.929124 Z M37.6558045,452.192668 C37.6558045,452.280652 37.5873727,452.349084 37.499389,452.349084 L31.7608961,452.349084 C31.6729124,452.349084 31.6044807,452.280652 31.6044807,452.192668 L31.6044807,449.225662 C31.6044807,449.142566 31.6729124,449.069246 31.7608961,449.069246 L37.499389,449.069246 C37.5824847,449.069246 37.6558045,449.137678 37.6558045,449.225662 L37.6558045,452.192668 L37.6558045,452.192668 Z" id="Shape"></path>
                </g>
            </g>
        </g>
    </g>
</svg>