<?xml version="1.0" encoding="UTF-8"?>
<svg width="24px" height="17px" viewBox="0 0 24 17" version="1.1" xmlns="http://www.w3.org/2000/svg" xmlns:xlink="http://www.w3.org/1999/xlink">
    <!-- Generator: Sketch 42 (36781) - http://www.bohemiancoding.com/sketch -->
    <title>Combined Shape</title>
    <desc>Created with Sketch.</desc>
    <defs></defs>
    <g id="Symbols" stroke="none" stroke-width="1" fill="none" fill-rule="evenodd">
        <g id="Left_Side" transform="translate(-15.000000, -389.000000)" fill-rule="nonzero" fill="#5B82A8">
            <g id="Group-10">
                <g id="Group-13">
                    <path d="M37.4065173,389 C38.2814664,389 38.990224,389.708758 38.995112,390.583707 L38.995112,399.870876 C38.995112,400.745825 38.2814664,401.45947 37.4065173,401.45947 L35.2362525,401.45947 L35.2362525,404.177189 C35.2362525,404.822403 34.7083503,405.350305 34.0631365,405.350305 L16.1731161,405.350305 C15.5279022,405.350305 15,404.822403 15,404.177189 L15,394.063951 C15,393.418737 15.5279022,392.890835 16.1731161,392.890835 L18.7588595,392.890835 L18.7588595,390.588595 C18.7588595,389.713646 19.4725051,389 20.3474542,389 L37.4065173,389 Z M18.9934827,398.531568 L21.2468432,398.531568 C21.5694501,398.531568 21.8334012,398.795519 21.8334012,399.118126 C21.8334012,399.440733 21.5694501,399.704684 21.2468432,399.704684 L18.9934827,399.704684 C18.6708758,399.704684 18.4069246,399.440733 18.4069246,399.118126 C18.4069246,398.795519 18.6708758,398.531568 18.9934827,398.531568 Z M28.8720978,399.704684 C28.5494908,399.704684 28.2855397,399.440733 28.2855397,399.118126 C28.2855397,398.795519 28.5494908,398.531568 28.8720978,398.531568 L31.1254582,398.531568 C31.4480652,398.531568 31.7120163,398.795519 31.7120163,399.118126 C31.7120163,399.440733 31.4480652,399.704684 31.1254582,399.704684 L28.8720978,399.704684 Z M30.7784114,394.063951 L19.492057,394.063951 C19.3405295,395.818737 17.9327902,397.216701 16.1731161,397.348676 L16.1731161,400.858248 C17.9279022,401.009776 19.3258656,402.417515 19.4578411,404.177189 L30.7441955,404.177189 C30.895723,402.422403 32.3034623,401.02444 34.0631365,400.892464 L34.0631365,397.382892 C32.3083503,397.231365 30.910387,395.823625 30.7784114,394.063951 Z M31.9515275,394.063951 C32.0786151,395.173523 32.9535642,396.058248 34.0582485,396.204888 L34.0582485,394.063951 L31.9515275,394.063951 Z M18.309165,394.063951 L16.1682281,394.063951 L16.1682281,396.170672 C17.2826884,396.048473 18.1674134,395.168635 18.309165,394.063951 Z M16.1731161,402.036253 L16.1731161,404.177189 L18.2798371,404.177189 C18.1576375,403.062729 17.2778004,402.178004 16.1731161,402.036253 Z M31.9221996,404.172301 L34.0631365,404.172301 L34.0631365,402.06558 C32.9486762,402.18778 32.0639511,403.067617 31.9221996,404.172301 Z M37.8171079,399.870876 L37.8171079,390.588595 C37.8171079,390.358859 37.6313646,390.173116 37.4016293,390.173116 L20.3425662,390.173116 C20.112831,390.173116 19.9270876,390.358859 19.9270876,390.588595 L19.9270876,392.890835 L34.0582485,392.890835 C34.7034623,392.890835 35.2313646,393.418737 35.2313646,394.063951 L35.2313646,400.286354 L37.4016293,400.286354 C37.6313646,400.286354 37.8171079,400.100611 37.8171079,399.870876 Z M24.614664,399.699796 C23.685947,399.699796 22.9331976,398.942159 22.9283096,398.01833 C22.9283096,397.118941 23.6370672,396.380855 24.5266802,396.336864 L24.5266802,395.872505 C24.5266802,395.549898 24.7906314,395.285947 25.1132383,395.285947 C25.4358452,395.285947 25.6997963,395.549898 25.6997963,395.872505 L25.6997963,396.331976 L26.3792261,396.331976 C26.701833,396.331976 26.9657841,396.595927 26.9657841,396.918534 C26.9657841,397.241141 26.701833,397.505092 26.3792261,397.505092 L24.614664,397.505092 C24.3311609,397.505092 24.1014257,397.734827 24.1014257,398.01833 C24.1014257,398.301833 24.3311609,398.531568 24.614664,398.531568 L25.6167006,398.531568 C26.5454175,398.531568 27.303055,399.289206 27.303055,400.217923 C27.303055,401.117312 26.5942974,401.855397 25.7046843,401.899389 L25.7046843,402.373523 C25.7046843,402.69613 25.4407332,402.960081 25.1181263,402.960081 C24.7955193,402.960081 24.5315682,402.69613 24.5315682,402.373523 L24.5315682,401.899389 L23.8179226,401.899389 C23.4953157,401.899389 23.2313646,401.635438 23.2313646,401.312831 C23.2313646,400.990224 23.4953157,400.726273 23.8179226,400.726273 L25.6167006,400.726273 C25.9002037,400.726273 26.1299389,400.496538 26.1299389,400.213035 C26.1299389,399.929532 25.9002037,399.699796 25.6167006,399.699796 L24.614664,399.699796 Z" id="Combined-Shape"></path>
                </g>
            </g>
        </g>
    </g>
</svg>