<?xml version="1.0" encoding="UTF-8"?>
<svg width="205px" height="37px" viewBox="0 0 205 37" version="1.1" xmlns="http://www.w3.org/2000/svg" xmlns:xlink="http://www.w3.org/1999/xlink">
    <!-- Generator: Sketch 42 (36781) - http://www.bohemiancoding.com/sketch -->
    <title>Page 1</title>
    <desc>Created with Sketch.</desc>
    <defs>
        <polygon id="path-1" points="0 36.9793189 204.971297 36.9793189 204.971297 0.000183783784 0 0.000183783784"></polygon>
    </defs>
    <g id="Page-1" stroke="none" stroke-width="1" fill="none" fill-rule="evenodd">
        <g id="8" transform="translate(-15.000000, -18.000000)">
            <g id="Page-1" transform="translate(15.000000, 18.000000)">
                <path d="M45.8337459,18.6569946 C45.8337459,19.785427 46.0377459,20.8541297 46.4466649,21.8631027 C46.8574216,22.8729946 47.430827,23.7524 48.1678,24.4967243 C48.904773,25.2438054 49.7777459,25.8346703 50.7885568,26.2711568 C51.7984486,26.7085622 52.9121784,26.9263459 54.1315838,26.9263459 C55.3666108,26.9263459 56.4656378,26.6947784 57.4185568,26.2316432 C58.3760703,25.7666703 59.1810432,25.1519135 59.8353135,24.3882919 C60.4895838,23.6246703 60.9848811,22.7461838 61.3221243,21.7537514 C61.6602865,20.7631568 61.8293676,19.7302919 61.8293676,18.6569946 C61.8293676,17.4918054 61.6455838,16.4047243 61.2816919,15.3948324 C60.9178,14.3849405 60.3958541,13.5064541 59.7112595,12.7612108 C59.0303405,12.0141297 58.1922865,11.4324541 57.1998541,11.0143459 C56.2101784,10.5953189 55.0863405,10.3867243 53.8301784,10.3867243 C52.5740162,10.3867243 51.4510973,10.5953189 50.4586649,11.0143459 C49.4680703,11.4324541 48.6318541,12.0141297 47.9481784,12.7612108 C47.2663405,13.5064541 46.7425568,14.3849405 46.3777459,15.3948324 C46.0138541,16.4047243 45.8337459,17.4918054 45.8337459,18.6569946 Z M64.8296378,28.5647784 L54.1848811,28.5647784 C52.8377459,28.5647784 51.5530973,28.3286162 50.3235838,27.8544541 C49.0940703,27.3821297 48.0161784,26.7131568 47.0889892,25.849373 C46.1618,24.9846703 45.4183946,23.9426162 44.8652054,22.7222919 C44.3083405,21.5056432 44.0335838,20.1493189 44.0335838,18.6569946 C44.0335838,17.2556432 44.2642324,15.9498595 44.7292054,14.7396432 C45.1905027,13.529427 45.8475297,12.4836973 46.6920162,11.6015351 C47.5392595,10.7184541 48.5666108,10.0219135 49.7777459,9.51283243 C50.9861243,9.00375135 52.3369351,8.74921081 53.8301784,8.74921081 C55.3225027,8.74921081 56.6723946,9.00375135 57.8844486,9.51283243 C59.092827,10.0219135 60.1238541,10.7184541 60.9674216,11.6015351 C61.8146649,12.4836973 62.4689351,13.529427 62.9329892,14.7396432 C63.3979622,15.9498595 63.6295297,17.2556432 63.6295297,18.6569946 C63.6295297,19.5125081 63.5201784,20.3625081 63.3014757,21.2079135 C63.0846108,22.0551568 62.7657459,22.8509405 62.3476378,23.5980216 C61.9276919,24.3432649 61.416773,25.0030486 60.8194757,25.5764541 C60.2185027,26.1489405 59.5421784,26.5817514 58.7996919,26.8712108 L58.7996919,26.9263459 L64.8296378,26.9263459 L64.8296378,28.5647784 Z" id="Fill-1" fill="#FFFFFF"></path>
                <path d="M76.8948595,25.0162811 C76.8948595,25.2533622 76.9040486,25.5400649 76.9215081,25.8763892 C76.9389676,26.2136324 76.9536703,26.5545514 76.9628595,26.9000649 C76.9720486,27.2446595 76.9858324,27.5681189 77.0042108,27.8686054 C77.0225892,28.168173 77.0308595,28.4006595 77.0308595,28.564227 L75.3933459,28.564227 C75.3758865,28.0919027 75.3602649,27.6379568 75.3519946,27.2005514 C75.3428054,26.7631459 75.3189135,26.4810378 75.2839946,26.3551459 L75.2040486,26.3551459 C74.8741568,27.046173 74.3292378,27.6397946 73.5656162,28.1406054 C72.8010757,28.6414162 71.9078865,28.8922811 70.8888054,28.8922811 C69.9083189,28.8922811 69.1033459,28.7379027 68.4748054,28.428227 C67.8471838,28.1194703 67.3555622,27.714227 66.9999405,27.2134162 C66.6434,26.7135243 66.4044811,26.1364432 66.2776703,25.4794162 C66.1508595,24.8251459 66.0846973,24.1515784 66.0846973,23.4605514 L66.0846973,15.9539027 L67.7231297,15.9539027 L67.7231297,23.3787676 C67.7231297,23.8869297 67.7709135,24.3831459 67.8591297,24.8664973 C67.9510216,25.3489297 68.1109135,25.7808216 68.3388054,26.1612541 C68.5666973,26.5453622 68.8837243,26.8504432 69.2926432,27.0764973 C69.7043189,27.3034703 70.2336162,27.4174162 70.8888054,27.4174162 C71.4888595,27.4174162 72.0585892,27.3135784 72.5943189,27.1040649 C73.1328054,26.8954703 73.5968595,26.5756865 73.9864811,26.1483892 C74.3816162,25.7220108 74.6885351,25.1853622 74.9173459,24.5384432 C75.1443189,23.8924432 75.2573459,23.1334162 75.2573459,22.2595243 L75.2573459,15.9539027 L76.8948595,15.9539027 L76.8948595,25.0162811 Z" id="Fill-3" fill="#FFFFFF"></path>
                <path d="M85.6074973,22.2326 C84.9183081,22.2326 84.2484162,22.277627 83.6024162,22.3686 C82.9573351,22.4604919 82.3729027,22.6139514 81.8555514,22.8326541 C81.3363622,23.0513568 80.9228486,23.3417351 80.6140919,23.7065459 C80.3044162,24.0686 80.1500378,24.5243838 80.1500378,25.0702216 C80.1500378,25.4543297 80.2354973,25.7934108 80.4100919,26.0948162 C80.5819297,26.3943838 80.8043081,26.6406541 81.0763081,26.8308703 C81.349227,27.0229243 81.6543081,27.1671946 81.9924703,27.2682757 C82.3287946,27.3684378 82.6706324,27.4180595 83.0161459,27.4180595 C83.8900378,27.4180595 84.6067946,27.2903297 85.1719297,27.0367081 C85.735227,26.7821676 86.1854973,26.4504378 86.5227405,26.0396811 C86.8599838,25.6298432 87.0915514,25.1648703 87.2183622,24.6475189 C87.3470108,24.1292486 87.4076595,23.6054649 87.4076595,23.0780054 L87.4076595,22.2326 L85.6074973,22.2326 Z M88.8834432,23.2700595 C88.8834432,23.887573 88.8880378,24.4435189 88.8990649,24.9333027 C88.9073351,25.4267622 88.9192811,25.8797892 88.9394973,26.2997351 C88.9569568,26.7187622 88.9780919,27.1093027 89.0084162,27.4731946 C89.0341459,27.8380054 89.0764162,28.2000595 89.1287946,28.5648703 L87.6006324,28.5648703 C87.4903622,27.9455189 87.4389027,27.2636811 87.4389027,26.5166 L87.3819297,26.5166 C86.9077676,27.3371946 86.3214973,27.9363297 85.6231189,28.3186 C84.9210649,28.7008703 84.0343081,28.8920054 82.9610108,28.8920054 C82.4142541,28.8920054 81.8785243,28.8230865 81.349227,28.6861676 C80.8208486,28.5510865 80.3485243,28.3333027 79.9304162,28.0318973 C79.5123081,27.7323297 79.1723081,27.3454649 78.9085784,26.8713027 C78.641173,26.3998973 78.5116054,25.8274108 78.5116054,25.1520054 C78.5116054,24.1889784 78.7578757,23.4244378 79.2485784,22.8593027 C79.7402,22.2950865 80.3448486,21.8733027 81.0662,21.5911946 C81.7811189,21.3100054 82.5447405,21.1271405 83.3561459,21.0453568 C84.1657135,20.963573 84.8797135,20.9222216 85.4981459,20.9222216 L87.4076595,20.9222216 L87.4076595,20.1576811 C87.4076595,19.0650865 87.0740919,18.2840054 86.3977676,17.8107622 C85.7260378,17.3375189 84.8797135,17.1013568 83.8606324,17.1013568 C82.4059838,17.1013568 81.1240919,17.5746 80.0131189,18.5192486 L79.0565243,17.4018432 C79.6584162,16.8192486 80.4036595,16.3772486 81.2959297,16.0786 C82.1872811,15.7781135 83.0427946,15.6264919 83.8606324,15.6264919 C85.3897135,15.6264919 86.6091189,15.9857892 87.5179297,16.7053027 C88.4276595,17.4248162 88.8834432,18.5844919 88.8834432,20.1852486 L88.8834432,23.2700595 Z" id="Fill-5" fill="#FFFFFF"></path>
                <mask id="mask-2" fill="white">
                    <use xlink:href="#path-1"></use>
                </mask>
                <g id="Clip-8"></g>
                <polygon id="Fill-7" fill="#FFFFFF" mask="url(#mask-2)" points="90.6430811 28.5647784 92.2815135 28.5647784 92.2815135 7.92953514 90.6430811 7.92953514"></polygon>
                <path d="M93.9594595,28.5289405 L95.5978919,28.5289405 L95.5978919,15.9167784 L93.9594595,15.9167784 L93.9594595,28.5289405 Z M93.5514595,10.9224541 C93.5514595,10.5769405 93.67,10.2856432 93.9070811,10.0485622 C94.1441622,9.8124 94.4345405,9.69477838 94.780973,9.69477838 C95.1246486,9.69477838 95.4177838,9.8124 95.6548649,10.0485622 C95.8882703,10.2856432 96.0068108,10.5769405 96.0068108,10.9224541 C96.0068108,11.2688865 95.8882703,11.5592649 95.6548649,11.7963459 C95.4177838,12.0325081 95.1246486,12.1501297 94.780973,12.1501297 C94.4345405,12.1501297 94.1441622,12.0325081 93.9070811,11.7963459 C93.67,11.5592649 93.5514595,11.2688865 93.5514595,10.9224541 L93.5514595,10.9224541 Z" id="Fill-9" fill="#FFFFFF" mask="url(#mask-2)"></path>
                <path d="M105.042541,17.3912757 L101.437622,17.3912757 L101.437622,25.6073297 C101.437622,26.170627 101.592,26.6080324 101.902595,26.9167892 C102.210432,27.2264649 102.641405,27.3808432 103.185405,27.3808432 C103.496919,27.3808432 103.81027,27.338573 104.128216,27.2577081 C104.448,27.1750054 104.749405,27.0720865 105.042541,26.9443568 L105.177622,28.4173838 C104.867946,28.528573 104.516,28.6278162 104.115351,28.7187892 C103.713784,28.8097622 103.358162,28.8557081 103.050324,28.8557081 C102.465892,28.8557081 101.964162,28.7674919 101.547892,28.5956541 C101.130703,28.4228973 100.792541,28.1913297 100.538,27.9000324 C100.283459,27.6078162 100.096919,27.2668973 99.9783784,26.8754378 C99.8598378,26.4848973 99.8001081,26.0631135 99.8001081,25.6073297 L99.8001081,17.3912757 L97.0736757,17.3912757 L97.0736757,15.9173297 L99.8001081,15.9173297 L99.8001081,12.2866811 L101.437622,12.2866811 L101.437622,15.9173297 L105.042541,15.9173297 L105.042541,17.3912757 Z" id="Fill-10" fill="#FFFFFF" mask="url(#mask-2)"></path>
                <path d="M109.072735,32.4304865 C108.762141,33.2492432 108.335762,33.8952432 107.788086,34.3684865 C107.242249,34.8426486 106.515384,35.0778919 105.605654,35.0778919 C105.334573,35.0778919 105.059816,35.0549189 104.788735,35.0098919 C104.515816,34.963027 104.24933,34.9051351 103.99387,34.8334595 L104.160195,33.3043784 C104.397276,33.3760541 104.638032,33.444973 104.881546,33.5092973 C105.127816,33.5717838 105.377762,33.6048649 105.631384,33.6048649 C105.926357,33.6048649 106.182735,33.5396216 106.411546,33.4118919 C106.639438,33.2850811 106.83333,33.1215135 106.997816,32.9211892 C107.159546,32.7208649 107.302897,32.4984865 107.421438,32.2531351 C107.539978,32.0087027 107.641978,31.7578378 107.734789,31.5023784 L108.8816,28.582973 L103.749438,15.9165946 L105.578086,15.9165946 L109.754573,26.5347027 L113.820789,15.9165946 L115.567654,15.9165946 L109.072735,32.4304865 Z" id="Fill-11" fill="#FFFFFF" mask="url(#mask-2)"></path>
                <path d="M121.688114,24.9893568 C122.161357,25.8081135 122.776114,26.4182757 123.529627,26.8170865 C124.285897,27.2186541 125.147843,27.4180595 126.109951,27.4180595 C126.710924,27.4180595 127.272384,27.3270865 127.803519,27.1451405 C128.330978,26.9631946 128.790438,26.7086541 129.181897,26.3806 C129.571519,26.0534649 129.882114,25.6583297 130.108168,25.1933568 C130.336059,24.7302216 130.451843,24.2064378 130.451843,23.6247622 C130.451843,22.9511946 130.31033,22.3961676 130.027303,21.9596811 C129.744276,21.5241135 129.3666,21.1638973 128.893357,20.8808703 C128.419195,20.5987622 127.889897,20.3589243 127.297195,20.1576811 C126.703573,19.9573568 126.098005,19.7588703 125.470384,19.5567081 C124.842762,19.3573027 124.231681,19.1303297 123.638978,18.8748703 C123.049951,18.6203297 122.516978,18.2886 122.042816,17.8796811 C121.569573,17.4689243 121.192816,16.9552486 120.911627,16.3368162 C120.627681,15.7183838 120.488005,14.9547622 120.488005,14.0441135 C120.488005,13.1886 120.658005,12.429573 120.991573,11.7642757 C121.329735,11.1008162 121.785519,10.5457892 122.358005,10.1001135 C122.931411,9.65443784 123.588438,9.31811351 124.336438,9.09022162 C125.081681,8.86232973 125.863681,8.7493027 126.684276,8.7493027 C127.739195,8.7493027 128.715086,8.93492432 129.619303,9.30800541 C130.519843,9.68108649 131.29633,10.3041135 131.954276,11.1780054 L130.395789,12.2963297 C129.941843,11.6604378 129.40887,11.1826 128.797789,10.8637351 C128.188546,10.5457892 127.466276,10.3868162 126.627303,10.3868162 C126.048384,10.3868162 125.4906,10.4640054 124.963141,10.6183838 C124.4366,10.7736811 123.977141,10.9997351 123.584762,11.3011405 C123.196059,11.601627 122.881789,11.9783838 122.644708,12.4323297 C122.407627,12.8899514 122.289086,13.4256811 122.289086,14.0441135 C122.289086,15.0089784 122.535357,15.749627 123.026059,16.2688162 C123.5186,16.7880054 124.131519,17.1960054 124.868492,17.4974108 C125.605465,17.7960595 126.405843,18.0597892 127.270546,18.2886 C128.136168,18.515573 128.935627,18.8206541 129.671681,19.2029243 C130.409573,19.5842757 131.023411,20.1163297 131.513195,20.7990865 C132.006654,21.4809243 132.251086,22.4237351 132.251086,23.6247622 C132.251086,24.4968162 132.088438,25.2723838 131.760384,25.9441135 C131.431411,26.6176811 130.99033,27.1864919 130.437141,27.6505459 C129.882114,28.1146 129.239789,28.4637892 128.512005,28.7008703 C127.782384,28.9361135 127.02887,29.0564919 126.24687,29.0564919 C124.971411,29.0564919 123.799789,28.8331946 122.727411,28.3875189 C121.652276,27.9400054 120.734276,27.1910865 119.970654,26.1361676 L121.688114,24.9893568 Z" id="Fill-12" fill="#FFFFFF" mask="url(#mask-2)"></path>
                <path d="M137.076422,32.4681622 C136.764908,33.286 136.339449,33.9329189 135.790854,34.4061622 C135.245016,34.8803243 134.518151,35.1155676 133.607503,35.1155676 C133.335503,35.1155676 133.064422,35.0916757 132.791503,35.0466486 C132.518584,35.0007027 132.251178,34.940973 131.996638,34.8702162 L132.162962,33.3411351 C132.400043,33.4137297 132.6408,33.4817297 132.884314,33.5460541 C133.130584,33.6094595 133.381449,33.6416216 133.63507,33.6416216 C133.927286,33.6416216 134.185503,33.5763784 134.414314,33.4495676 C134.642205,33.3218378 134.837016,33.1591892 135.000584,32.9579459 C135.163232,32.7585405 135.305665,32.5361622 135.424205,32.2908108 C135.542746,32.0445405 135.645665,31.7955135 135.737557,31.5400541 L136.883449,28.6197297 L131.752205,15.9542703 L133.580854,15.9542703 L137.757341,26.5723784 L141.823557,15.9542703 L143.572259,15.9542703 L137.076422,32.4681622 Z" id="Fill-13" fill="#FFFFFF" mask="url(#mask-2)"></path>
                <path d="M144.827135,25.3447946 C145.170811,26.0174432 145.680811,26.5311189 146.354378,26.8867405 C147.028865,27.2405243 147.73827,27.4178757 148.484432,27.4178757 C148.829027,27.4178757 149.174541,27.3636595 149.520054,27.2543081 C149.868324,27.1449568 150.175243,26.9905784 150.448162,26.791173 C150.721081,26.5899297 150.945297,26.349173 151.118054,26.0661459 C151.289892,25.7849568 151.378108,25.4624162 151.378108,25.0976054 C151.378108,24.5168486 151.191568,24.0794432 150.819405,23.7890649 C150.444486,23.4977676 149.986865,23.2698757 149.43827,23.1053892 C148.892432,22.9418216 148.292378,22.801227 147.638108,22.6836054 C146.982919,22.5650649 146.381027,22.3822 145.837946,22.1359297 C145.29027,21.8914973 144.828973,21.5487405 144.456811,21.113173 C144.08373,20.6757676 143.897189,20.0582541 143.897189,19.2569568 C143.897189,18.6385243 144.024919,18.1018757 144.278541,17.6460919 C144.534919,17.191227 144.867568,16.8135514 145.277405,16.5149027 C145.685405,16.2134973 146.144865,15.9911189 146.653946,15.8450108 C147.163946,15.6998216 147.681297,15.6263081 148.212432,15.6263081 C149.248973,15.6263081 150.143081,15.8183622 150.897514,16.1997135 C151.652865,16.5819838 152.240973,17.1838757 152.66,18.0017135 L151.186054,18.8746865 C150.878216,18.2920919 150.489514,17.8519297 150.024541,17.5514432 C149.562324,17.2509568 148.954919,17.101173 148.212432,17.101173 C147.918378,17.101173 147.613297,17.1471189 147.297189,17.237173 C146.977405,17.3290649 146.688865,17.4558757 146.435243,17.6203622 C146.180703,17.7830108 145.968432,17.9934432 145.795676,18.2461459 C145.620162,18.5016054 145.534703,18.7929027 145.534703,19.1200378 C145.534703,19.685173 145.723081,20.1032811 146.094324,20.3762 C146.467405,20.6500378 146.926865,20.863227 147.475459,21.0176054 C148.020378,21.1719838 148.621351,21.3043081 149.274703,21.4145784 C149.930811,21.5239297 150.530865,21.7003622 151.076703,21.9447946 C151.623459,22.1910649 152.082919,22.5466865 152.456,23.0098216 C152.826324,23.4747946 153.014703,24.1336595 153.014703,24.989173 C153.014703,25.6443622 152.890649,26.213173 152.645297,26.6946865 C152.399946,27.1771189 152.061784,27.5832811 151.636324,27.9094973 C151.209027,28.2375514 150.721081,28.4829027 150.175243,28.6473892 C149.632162,28.8100378 149.056,28.8918216 148.455027,28.8918216 C147.365189,28.8918216 146.367243,28.683227 145.466703,28.2632811 C144.567081,27.845173 143.870541,27.2010108 143.378919,26.3262 L144.827135,25.3447946 Z" id="Fill-14" fill="#FFFFFF" mask="url(#mask-2)"></path>
                <path d="M161.227632,17.4284919 L157.627308,17.4284919 L157.627308,25.6445459 C157.627308,26.2078432 157.781686,26.6452486 158.092281,26.9540054 C158.400119,27.2636811 158.826497,27.4180595 159.373254,27.4180595 C159.682011,27.4180595 159.996281,27.3767081 160.316984,27.2958432 C160.634011,27.2131405 160.938173,27.1093027 161.227632,26.981573 L161.363632,28.4555189 C161.055795,28.5648703 160.702011,28.6650324 160.301362,28.7560054 C159.901632,28.8460595 159.546011,28.8920054 159.238173,28.8920054 C158.653741,28.8920054 158.154768,28.8047081 157.736659,28.6328703 C157.315795,28.4601135 156.981308,28.2285459 156.727686,27.9363297 C156.473146,27.6459514 156.284768,27.3041135 156.166227,26.913573 C156.048605,26.5221135 155.990714,26.0994108 155.990714,25.6445459 L155.990714,17.4284919 L153.258768,17.4284919 L153.258768,15.9545459 L155.990714,15.9545459 L155.990714,12.3238973 L157.627308,12.3238973 L157.627308,15.9545459 L161.227632,15.9545459 L161.227632,17.4284919 Z" id="Fill-15" fill="#FFFFFF" mask="url(#mask-2)"></path>
                <path d="M172.280665,21.1952324 C172.280665,20.6319351 172.1658,20.1035568 171.940665,19.6119351 C171.712773,19.1203135 171.400341,18.6893405 171.010719,18.3162595 C170.619259,17.9422595 170.155205,17.6463676 169.618557,17.4285838 C169.082827,17.2098811 168.514016,17.1005297 167.913043,17.1005297 C167.020773,17.1005297 166.281043,17.2833946 165.688341,17.6463676 C165.097476,18.0111784 164.628827,18.4283676 164.281476,18.9016108 C163.9378,19.375773 163.693368,19.8352324 163.546341,20.2799892 C163.399314,20.7265838 163.328557,21.0325838 163.328557,21.1952324 L172.280665,21.1952324 Z M173.536827,26.1904757 C172.899097,27.1544216 172.112503,27.8445297 171.173368,28.2626378 C170.236989,28.6825838 169.203205,28.8920973 168.075692,28.8920973 C167.112665,28.8920973 166.238773,28.7276108 165.457692,28.4004757 C164.672935,28.0724216 163.999368,27.6138811 163.436989,27.0230162 C162.871854,26.4312324 162.440881,25.7310162 162.141314,24.9214486 C161.841746,24.1118811 161.691043,23.2150162 161.691043,22.2326919 C161.691043,21.2871243 161.843584,20.4123135 162.155097,19.6119351 C162.462935,18.8115568 162.897584,18.1140973 163.463638,17.5250703 C164.027854,16.9323676 164.692232,16.4683135 165.457692,16.1319892 C166.221314,15.7947459 167.0658,15.6265838 167.993908,15.6265838 C168.957854,15.6265838 169.81153,15.7947459 170.548503,16.1319892 C171.283638,16.4683135 171.902989,16.9139892 172.402881,17.4690162 C172.902773,18.0240432 173.283205,18.6571784 173.536827,19.3656649 C173.793205,20.0750703 173.918178,20.7936649 173.918178,21.5232865 L173.918178,22.6691784 L163.328557,22.6691784 C163.328557,23.0146919 163.395638,23.4566919 163.532557,23.9933405 C163.668557,24.5290703 163.916665,25.0519351 164.281476,25.5628541 C164.646286,26.0719351 165.135151,26.5084216 165.742557,26.8713946 C166.3518,27.2362054 167.139314,27.4172324 168.105097,27.4172324 C168.940395,27.4172324 169.752719,27.2187459 170.5338,26.8171784 C171.313962,26.4183676 171.916773,25.8725297 172.333962,25.1796649 L173.536827,26.1904757 Z" id="Fill-16" fill="#FFFFFF" mask="url(#mask-2)"></path>
                <path d="M175.443951,19.503227 C175.443951,19.2661459 175.432924,18.9803622 175.414546,18.6431189 C175.398005,18.3058757 175.385141,17.9649568 175.372276,17.6203622 C175.364924,17.2739297 175.352059,16.9504703 175.3346,16.6509027 C175.312546,16.3494973 175.306114,16.1188486 175.306114,15.9543622 L176.943627,15.9543622 C176.960168,16.4276054 176.975789,16.8824703 176.984059,17.3198757 C176.993249,17.7563622 177.016222,18.0375514 177.052059,18.1652811 L177.134762,18.1652811 C177.462816,17.4742541 178.007735,16.8778757 178.773195,16.3770649 C179.536816,15.877173 180.429086,15.6263081 181.448168,15.6263081 C182.286222,15.6263081 183.048924,15.8413351 183.739032,16.2686324 C184.432816,16.6950108 184.932708,17.3915514 185.242384,18.3554973 C185.642114,17.4099297 186.235735,16.7189027 187.029681,16.2824162 C187.82087,15.8450108 188.653411,15.6263081 189.525465,15.6263081 C190.509627,15.6263081 191.310005,15.7825243 191.927519,16.0912811 C192.547789,16.4009568 193.033897,16.8052811 193.3886,17.3042541 C193.742384,17.8059838 193.989573,18.3839838 194.125573,19.0373351 C194.262492,19.6934432 194.330492,20.3670108 194.330492,21.0580378 L194.330492,28.5646865 L192.692059,28.5646865 L192.692059,21.1407405 C192.692059,20.6316595 192.647951,20.1354432 192.556978,19.6530108 C192.464168,19.1714973 192.304276,18.7386865 192.079141,18.3554973 C191.851249,17.9741459 191.531465,17.6690649 191.123465,17.441173 C190.714546,17.2151189 190.180654,17.101173 189.525465,17.101173 C188.761843,17.101173 188.136059,17.2426865 187.6426,17.5247946 C187.151897,17.8059838 186.765951,18.1652811 186.482005,18.6026865 C186.200816,19.0373351 186.00233,19.5124162 185.883789,20.0214973 C185.765249,20.5314973 185.706438,21.0130108 185.706438,21.4669568 L185.706438,28.5646865 L184.068924,28.5646865 L184.068924,20.9762541 C184.068924,19.8119838 183.851141,18.8746865 183.4266,18.1652811 C182.999303,17.4558757 182.3386,17.101173 181.448168,17.101173 C180.845357,17.101173 180.277465,17.2059297 179.741735,17.4154432 C179.205086,17.6240378 178.741032,17.9429027 178.349573,18.3702 C177.959032,18.7984162 177.6466,19.3350649 177.422384,19.9801459 C177.193573,20.6261459 177.078708,21.3870108 177.078708,22.2599838 L177.078708,28.5646865 L175.443951,28.5646865 L175.443951,19.503227 Z" id="Fill-17" fill="#FFFFFF" mask="url(#mask-2)"></path>
                <path d="M196.781892,25.3447946 C197.129243,26.0174432 197.638324,26.5311189 198.310973,26.8867405 C198.985459,27.2405243 199.693946,27.4178757 200.439189,27.4178757 C200.785622,27.4178757 201.132973,27.3636595 201.476649,27.2543081 C201.823081,27.1449568 202.134595,26.9905784 202.407514,26.791173 C202.678595,26.5899297 202.900054,26.349173 203.076486,26.0661459 C203.247405,25.7849568 203.333784,25.4624162 203.333784,25.0976054 C203.333784,24.5168486 203.147243,24.0794432 202.774162,23.7890649 C202.401081,23.4977676 201.941622,23.2698757 201.396703,23.1053892 C200.849027,22.9418216 200.250811,22.801227 199.592865,22.6836054 C198.938595,22.5650649 198.340378,22.3822 197.792703,22.1359297 C197.247784,21.8914973 196.788324,21.5487405 196.415243,21.113173 C196.042162,20.6757676 195.855622,20.0582541 195.855622,19.2569568 C195.855622,18.6385243 195.983351,18.1018757 196.237892,17.6460919 C196.492432,17.191227 196.824162,16.8135514 197.232162,16.5149027 C197.644757,16.2134973 198.103297,15.9911189 198.613297,15.8450108 C199.123297,15.6998216 199.640649,15.6263081 200.168108,15.6263081 C201.20373,15.6263081 202.101514,15.8183622 202.855946,16.1997135 C203.612216,16.5819838 204.198486,17.1838757 204.614757,18.0017135 L203.144486,18.8746865 C202.832973,18.2920919 202.447946,17.8519297 201.982973,17.5514432 C201.517081,17.2509568 200.91427,17.101173 200.168108,17.101173 C199.876811,17.101173 199.57173,17.1471189 199.251946,17.237173 C198.935838,17.3290649 198.647297,17.4558757 198.393676,17.6203622 C198.140054,17.7830108 197.925946,17.9934432 197.75227,18.2461459 C197.578595,18.5016054 197.493135,18.7929027 197.493135,19.1200378 C197.493135,19.685173 197.679676,20.1032811 198.053676,20.3762 C198.425838,20.6500378 198.886216,20.863227 199.430216,21.0176054 C199.978811,21.1719838 200.576108,21.3043081 201.231297,21.4145784 C201.888324,21.5239297 202.487459,21.7003622 203.034216,21.9447946 C203.579135,22.1910649 204.039514,22.5466865 204.412595,23.0098216 C204.784757,23.4747946 204.971297,24.1336595 204.971297,24.989173 C204.971297,25.6443622 204.85,26.213173 204.60373,26.6946865 C204.358378,27.1771189 204.021135,27.5832811 203.593838,27.9094973 C203.164703,28.2375514 202.678595,28.4829027 202.134595,28.6473892 C201.586919,28.8100378 201.013514,28.8918216 200.413459,28.8918216 C199.321784,28.8918216 198.326595,28.683227 197.424216,28.2632811 C196.524595,27.845173 195.828973,27.2010108 195.33827,26.3262 L196.781892,25.3447946 Z" id="Fill-18" fill="#FFFFFF" mask="url(#mask-2)"></path>
                <path d="M36.2188216,16.9717892 C35.3256324,16.9717892 34.6006054,17.6977351 34.6006054,18.5900054 C34.6006054,19.0853027 34.8294162,19.5539514 35.2199568,19.8608703 C34.9700108,22.9383297 33.8728216,25.8788703 32.0579568,28.3562757 L32.0028216,28.4123297 C29.0466595,32.4362757 24.4897405,34.9182757 19.4770378,35.2251946 C18.8264432,35.2647081 18.2089297,35.2647081 17.5050378,35.2233568 C12.5171459,34.9182757 7.95930811,32.4362757 4.99855135,28.4077351 C4.9764973,28.3792486 4.9572,28.3673027 4.9572,28.3718973 C2.84184865,25.4846541 1.72352432,22.0681135 1.72352432,18.4898432 C1.72352432,9.24551892 9.24487568,1.72508649 18.4901189,1.72508649 C23.1894703,1.72508649 27.7041189,3.72097838 30.8633622,7.18897838 L30.8872541,7.22481622 C30.8973622,7.23584324 31.8585514,8.40195135 30.9534162,9.30524865 L19.5698486,20.6897351 L19.5432,20.7145459 C19.1793081,21.0784378 18.8200108,21.2567081 18.4404973,21.2567081 C17.7871459,21.2548703 17.2550919,20.7274108 17.2468216,20.7182216 L11.6423351,15.1164919 C11.7562811,14.8904378 11.814173,14.6496811 11.814173,14.3997351 C11.814173,13.5065459 11.088227,12.7796811 10.1950378,12.7796811 C9.52882162,12.7796811 8.93979459,13.1803297 8.69903784,13.789573 C8.66871351,13.8520595 8.65492973,13.9117892 8.64206486,13.9696811 C8.59887568,14.1213027 8.57682162,14.2618973 8.57682162,14.3997351 C8.57682162,15.251573 9.25406486,15.9618973 10.0994703,16.0133568 L16.0329297,21.9431405 L16.1358486,22.0414649 C16.4335784,22.3079514 17.2872541,22.9723297 18.4460108,22.9833568 C19.226173,22.9833568 19.9640649,22.6654108 20.6348757,22.0442216 C20.6504973,22.0350324 20.6753081,22.0221676 20.7074703,21.9936811 L32.1728216,10.5264919 C33.732227,8.96524865 32.9263351,7.02357297 32.2546054,6.17173514 L32.2527676,6.09546486 L32.1948757,6.08351892 L32.1829297,6.07065405 C28.6818486,2.21211351 23.6912,0.000275675676 18.4901189,0.000275675676 C8.29471351,0.000275675676 -0.000367567567,8.29535676 -0.000367567567,18.4898432 C-0.000367567567,28.2653027 7.63952432,36.3701676 17.3635243,36.9389784 L17.4278486,36.9481676 C17.7926595,36.9674649 18.1492,36.9794108 18.5011459,36.9794108 L18.512173,36.9794108 C18.8604432,36.9794108 19.2087135,36.9683838 19.6130378,36.9444919 C28.7406595,36.4069243 36.1701189,29.1483838 36.9328216,20.0428162 C37.4860108,19.7708162 37.8388757,19.2111946 37.8388757,18.5900054 C37.8388757,17.6977351 37.1120108,16.9717892 36.2188216,16.9717892" id="Fill-19" fill="#00CCD3" mask="url(#mask-2)"></path>
                <path d="M33.9497351,12.0814865 C33.0565459,12.0814865 32.3306,12.8083514 32.3306,13.7006216 C32.3306,13.8540811 32.3544919,14.0066216 32.4022757,14.1637568 L21.5829243,24.9656486 C20.6079514,25.9387838 19.5714108,26.4331622 18.4788162,26.4331622 C16.6418973,26.4202973 15.2212486,24.9803514 15.2037892,24.9628919 L11.7587622,21.5197027 C11.7964378,21.3837027 11.8148162,21.2522973 11.8148162,21.1236486 C11.8148162,20.2313784 11.0888703,19.5054324 10.1947622,19.5054324 C9.30249189,19.5054324 8.57746486,20.2313784 8.57746486,21.1236486 C8.57746486,22.0159189 9.30249189,22.7409459 10.1947622,22.7409459 C10.2940054,22.7409459 10.3987622,22.7299189 10.5071946,22.7069459 L13.9706,26.1703514 C14.0487081,26.2512162 15.8994108,28.1340811 18.4383838,28.1570541 C18.4595189,28.1588919 18.481573,28.1588919 18.5045459,28.1588919 C20.045573,28.1588919 21.4910324,27.4945135 22.8014108,26.1850541 L33.7034649,15.2995405 C33.7898432,15.3142432 33.871627,15.3197568 33.9497351,15.3197568 C34.8420054,15.3197568 35.5679514,14.5938108 35.5679514,13.7006216 C35.5679514,12.8083514 34.8420054,12.0814865 33.9497351,12.0814865" id="Fill-20" fill="#54E188" mask="url(#mask-2)"></path>
            </g>
        </g>
    </g>
</svg>