<?xml version="1.0" encoding="UTF-8"?>
<svg width="240px" height="44px" viewBox="0 0 240 44" version="1.1" xmlns="http://www.w3.org/2000/svg" xmlns:xlink="http://www.w3.org/1999/xlink">
    <!-- Generator: Sketch 42 (36781) - http://www.bohemiancoding.com/sketch -->
    <title>Page 1</title>
    <desc>Created with Sketch.</desc>
    <defs>
        <polygon id="path-1" points="0 43.1867512 239.378244 43.1867512 239.378244 0.000214634146 0 0.000214634146"></polygon>
    </defs>
    <g id="Page-1" stroke="none" stroke-width="1" fill="none" fill-rule="evenodd">
        <g id="1" transform="translate(-520.000000, -303.000000)">
            <g id="Page-1" transform="translate(520.000000, 303.000000)">
                <path d="M53.5275024,21.7888 C53.5275024,23.1066537 53.7657463,24.3547512 54.2433073,25.5330927 C54.7230146,26.7125073 55.3926732,27.7395317 56.2533561,28.6088 C57.114039,29.4812878 58.1335512,30.1713366 59.314039,30.6810927 C60.4934537,31.191922 61.7941366,31.4462634 63.2182341,31.4462634 C64.6605756,31.4462634 65.9440878,31.1758244 67.0569659,30.6349463 C68.1752098,30.091922 69.1153073,29.3739707 69.8794049,28.4821659 C70.6435024,27.590361 71.2219415,26.5644098 71.6157951,25.4053854 C72.010722,24.2485073 72.2081854,23.0422634 72.2081854,21.7888 C72.2081854,20.4280195 71.9935512,19.1584585 71.5685756,17.9790439 C71.1436,16.7996293 70.534039,15.773678 69.7345268,14.9033366 C68.9393073,14.0308488 67.9605756,13.3515317 66.8015512,12.863239 C65.6457463,12.3738732 64.3332585,12.1302634 62.8662341,12.1302634 C61.3992098,12.1302634 60.0877951,12.3738732 58.9287707,12.863239 C57.7718927,13.3515317 56.7953073,14.0308488 55.9968683,14.9033366 C55.2005756,15.773678 54.5888683,16.7996293 54.1628195,17.9790439 C53.7378439,19.1584585 53.5275024,20.4280195 53.5275024,21.7888 Z M75.7120878,33.3597268 L63.280478,33.3597268 C61.7072098,33.3597268 60.2069171,33.083922 58.7710146,32.5301659 C57.3351122,31.9785561 56.0762829,31.1972878 54.9934537,30.1885073 C53.9106244,29.1786537 53.0424293,27.961678 52.3963805,26.5365073 C51.746039,25.1156293 51.425161,23.5316293 51.425161,21.7888 C51.425161,20.1522146 51.6945268,18.627239 52.2375512,17.2138732 C52.7762829,15.8005073 53.5436,14.579239 54.5298439,13.5489951 C55.5193073,12.517678 56.7191122,11.7042146 58.1335512,11.109678 C59.5447707,10.5151415 61.1223317,10.2178732 62.8662341,10.2178732 C64.6090634,10.2178732 66.1855512,10.5151415 67.6010634,11.109678 C69.0122829,11.7042146 70.2163805,12.517678 71.2015512,13.5489951 C72.1910146,14.579239 72.9551122,15.8005073 73.4970634,17.2138732 C74.0400878,18.627239 74.3105268,20.1522146 74.3105268,21.7888 C74.3105268,22.787922 74.1828195,23.7806049 73.9274049,24.767922 C73.6741366,25.7573854 73.3017463,26.6867512 72.8134537,27.559239 C72.3230146,28.4295805 71.7263317,29.2001171 71.0287707,29.8697756 C70.3269171,30.538361 69.5370634,31.0438244 68.6699415,31.3818732 L68.6699415,31.4462634 L75.7120878,31.4462634 L75.7120878,33.3597268 Z" id="Fill-1" fill="#0F2A45"></path>
                <path d="M89.8026049,29.2155707 C89.8026049,29.4924488 89.8133366,29.827278 89.8337268,30.2200585 C89.8541171,30.6139122 89.8712878,31.0120585 89.8820195,31.4155707 C89.8927512,31.8180098 89.9088488,32.1957659 89.9303122,32.5466927 C89.9517756,32.8965463 89.9614341,33.1680585 89.9614341,33.3590829 L88.0490439,33.3590829 C88.0286537,32.8074732 88.0104098,32.2773268 88.0007512,31.7664976 C87.9900195,31.2556683 87.9621171,30.9262049 87.9213366,30.7791805 L87.8279707,30.7791805 C87.4427024,31.5862049 86.8063122,32.2794732 85.9145073,32.8643512 C85.0216293,33.4492293 83.9785073,33.7422049 82.788361,33.7422049 C81.6432878,33.7422049 80.7031902,33.5619122 79.9691415,33.2002537 C79.2361659,32.8396683 78.6620195,32.3664 78.2467024,31.781522 C77.8303122,31.1977171 77.5512878,30.5237659 77.4031902,29.7564488 C77.2550927,28.9923512 77.1778244,28.2057171 77.1778244,27.3986927 L77.1778244,18.631961 L79.0912878,18.631961 L79.0912878,27.3031805 C79.0912878,27.8966439 79.1470927,28.4761561 79.2501171,29.0406439 C79.3574341,29.6040585 79.5441659,30.1084488 79.8103122,30.5527415 C80.0764585,31.0013268 80.4467024,31.3576195 80.9242634,31.6216195 C81.4050439,31.8866927 82.0231902,32.0197659 82.788361,32.0197659 C83.4891415,32.0197659 84.1545073,31.8984976 84.7801659,31.6538146 C85.4090439,31.4102049 85.9509951,31.0367415 86.4060195,30.5377171 C86.8674829,30.0397659 87.225922,29.4130341 87.4931415,28.657522 C87.7582146,27.9030829 87.8902146,27.0166439 87.8902146,25.9960585 L87.8902146,18.631961 L89.8026049,18.631961 L89.8026049,29.2155707 Z" id="Fill-3" fill="#0F2A45"></path>
                <path d="M99.9777659,25.9646146 C99.1728878,25.9646146 98.3905463,26.0172 97.6361073,26.1234439 C96.8827415,26.230761 96.2002049,26.4099805 95.5960098,26.6653951 C94.9896683,26.9208098 94.5067415,27.2599317 94.1461561,27.6859805 C93.7844976,28.1088098 93.6042049,28.6411024 93.6042049,29.2785659 C93.6042049,29.7271512 93.7040098,30.1231512 93.9079122,30.4751512 C94.1085951,30.8250049 94.3683024,31.1126146 94.685961,31.334761 C95.0046927,31.5590537 95.3609854,31.7275415 95.7559122,31.8455902 C96.1486927,31.9625659 96.5479122,32.0205171 96.9514244,32.0205171 C97.9720098,32.0205171 98.8090829,31.8713463 99.4690829,31.5751512 C100.126937,31.2778829 100.65279,30.8904683 101.046644,30.410761 C101.440498,29.9321268 101.710937,29.3891024 101.859034,28.7849073 C102.009278,28.179639 102.080107,27.5679317 102.080107,26.9519317 L102.080107,25.9646146 L99.9777659,25.9646146 Z M103.80362,27.1762244 C103.80362,27.8973951 103.808985,28.5466634 103.821863,29.1186634 C103.831522,29.6949561 103.845473,30.2240293 103.869083,30.7144683 C103.889473,31.2038341 103.914156,31.6599317 103.949571,32.0849073 C103.97962,32.5109561 104.028985,32.9337854 104.090156,33.3598341 L102.305473,33.3598341 C102.176693,32.6365171 102.116595,31.8402244 102.116595,30.9677366 L102.050059,30.9677366 C101.496302,31.926078 100.81162,32.6257854 99.9960098,33.0722244 C99.1761073,33.5186634 98.1404976,33.7418829 96.8870341,33.7418829 C96.2484976,33.7418829 95.622839,33.6613951 95.0046927,33.5014927 C94.3876195,33.3437366 93.8360098,33.0893951 93.3477171,32.7373951 C92.8594244,32.3875415 92.4623512,31.9357366 92.1543512,31.3819805 C91.8420585,30.8314439 91.6907415,30.1628585 91.6907415,29.374078 C91.6907415,28.2493951 91.9783512,27.3565171 92.5514244,26.6965171 C93.1255707,26.0375902 93.8317171,25.5450049 94.6741561,25.2155415 C95.5090829,24.8871512 96.4008878,24.6735902 97.3484976,24.578078 C98.293961,24.4825659 99.1278146,24.4342732 99.8500585,24.4342732 L102.080107,24.4342732 L102.080107,23.5413951 C102.080107,22.2653951 101.690546,21.3532 100.900693,20.8005171 C100.116205,20.2478341 99.1278146,19.9720293 97.9376683,19.9720293 C96.238839,19.9720293 94.7417659,20.5247122 93.4443024,21.6279317 L92.3271317,20.3229561 C93.0300585,19.6425659 93.9004,19.1263707 94.9424488,18.7775902 C95.9834244,18.4266634 96.9825463,18.2495902 97.9376683,18.2495902 C99.7234244,18.2495902 101.147522,18.6692 102.208888,19.5094927 C103.271327,20.3497854 103.80362,21.7041268 103.80362,23.5735902 L103.80362,27.1762244 Z" id="Fill-5" fill="#0F2A45"></path>
                <mask id="mask-2" fill="white">
                    <use xlink:href="#path-1"></use>
                </mask>
                <g id="Clip-8"></g>
                <polygon id="Fill-7" fill="#0F2A45" mask="url(#mask-2)" points="105.858634 33.3597268 107.772098 33.3597268 107.772098 9.26060488 105.858634 9.26060488"></polygon>
                <path d="M109.731707,33.3178732 L111.645171,33.3178732 L111.645171,18.5886049 L109.731707,18.5886049 L109.731707,33.3178732 Z M109.25522,12.755922 C109.25522,12.3524098 109.393659,12.0122146 109.670537,11.7353366 C109.947415,11.4595317 110.286537,11.3221659 110.691122,11.3221659 C111.092488,11.3221659 111.434829,11.4595317 111.711707,11.7353366 C111.984293,12.0122146 112.122732,12.3524098 112.122732,12.755922 C112.122732,13.1605073 111.984293,13.4996293 111.711707,13.7765073 C111.434829,14.0523122 111.092488,14.189678 110.691122,14.189678 C110.286537,14.189678 109.947415,14.0523122 109.670537,13.7765073 C109.393659,13.4996293 109.25522,13.1605073 109.25522,12.755922 L109.25522,12.755922 Z" id="Fill-9" fill="#0F2A45" mask="url(#mask-2)"></path>
                <path d="M122.67522,20.3106146 L118.465171,20.3106146 L118.465171,29.9058341 C118.465171,30.5636878 118.645463,31.0745171 119.008195,31.4351024 C119.367707,31.796761 119.871024,31.9770537 120.506341,31.9770537 C120.870146,31.9770537 121.236098,31.9276878 121.607415,31.8332488 C121.980878,31.7366634 122.332878,31.6164683 122.67522,31.4672976 L122.832976,33.1875902 C122.471317,33.3174439 122.060293,33.4333463 121.59239,33.5395902 C121.123415,33.6458341 120.708098,33.6994927 120.348585,33.6994927 C119.666049,33.6994927 119.080098,33.5964683 118.593951,33.3957854 C118.106732,33.1940293 117.711805,32.9235902 117.414537,32.5833951 C117.117268,32.2421268 116.899415,31.8439805 116.760976,31.3868098 C116.622537,30.9307122 116.55278,30.4381268 116.55278,29.9058341 L116.55278,20.3106146 L113.368683,20.3106146 L113.368683,18.5892488 L116.55278,18.5892488 L116.55278,14.3491512 L118.465171,14.3491512 L118.465171,18.5892488 L122.67522,18.5892488 L122.67522,20.3106146 Z" id="Fill-10" fill="#0F2A45" mask="url(#mask-2)"></path>
                <path d="M127.381932,37.8743415 C127.0192,38.8305366 126.521249,39.5849756 125.881639,40.1376585 C125.244176,40.6914146 124.395298,40.9661463 123.332859,40.9661463 C123.016273,40.9661463 122.695395,40.9393171 122.37881,40.8867317 C122.060078,40.832 121.748859,40.7643902 121.450517,40.6806829 L121.644761,38.8949268 C121.921639,38.9786341 122.20281,39.059122 122.4872,39.1342439 C122.77481,39.2072195 123.066712,39.2458537 123.362907,39.2458537 C123.707395,39.2458537 124.00681,39.1696585 124.274029,39.0204878 C124.540176,38.8723902 124.766615,38.6813659 124.958712,38.4474146 C125.14759,38.2134634 125.315005,37.9537561 125.453444,37.6672195 C125.591883,37.3817561 125.711005,37.0887805 125.819395,36.790439 L127.158712,33.3809756 L121.165054,18.5883902 L123.300663,18.5883902 L128.178224,30.988878 L132.927005,18.5883902 L134.967102,18.5883902 L127.381932,37.8743415 Z" id="Fill-11" fill="#0F2A45" mask="url(#mask-2)"></path>
                <path d="M142.114956,29.1841268 C142.667639,30.140322 143.38559,30.8529073 144.26559,31.3186634 C145.14881,31.787639 146.155444,32.0205171 147.279054,32.0205171 C147.980907,32.0205171 148.636615,31.9142732 149.256907,31.7017854 C149.872907,31.4892976 150.409493,31.1920293 150.866663,30.8089073 C151.321688,30.4268585 151.68442,29.9653951 151.94842,29.4223707 C152.214566,28.8814927 152.349785,28.2697854 152.349785,27.5904683 C152.349785,26.8038341 152.184517,26.155639 151.85398,25.6458829 C151.523444,25.1372 151.082371,24.7165171 150.529688,24.3859805 C149.975932,24.0565171 149.357785,23.7764195 148.66559,23.5413951 C147.972322,23.3074439 147.265102,23.075639 146.532127,22.8395415 C145.799151,22.6066634 145.085493,22.3415902 144.393298,22.0432488 C143.705395,21.7459805 143.082956,21.3585659 142.5292,20.8810049 C141.976517,20.4012976 141.536517,19.8013951 141.208127,19.0791512 C140.876517,18.3569073 140.713395,17.4651024 140.713395,16.4015902 C140.713395,15.4024683 140.911932,14.5160293 141.301493,13.7390537 C141.69642,12.9642244 142.228712,12.3160293 142.897298,11.7955415 C143.566956,11.2750537 144.334273,10.8822732 145.207834,10.6161268 C146.078176,10.3499805 146.991444,10.2179805 147.949785,10.2179805 C149.181785,10.2179805 150.321493,10.434761 151.377493,10.8704683 C152.4292,11.3061756 153.336029,12.0337854 154.10442,13.0543707 L152.284322,14.3604195 C151.754176,13.6177854 151.131737,13.0597366 150.418078,12.6873463 C149.706566,12.3160293 148.863054,12.1303707 147.883249,12.1303707 C147.207151,12.1303707 146.555737,12.2205171 145.939737,12.4008098 C145.32481,12.5821756 144.788224,12.8461756 144.32998,13.1981756 C143.876029,13.5491024 143.509005,13.9891024 143.232127,14.5192488 C142.955249,15.0536878 142.81681,15.6793463 142.81681,16.4015902 C142.81681,17.5284195 143.10442,18.3933951 143.677493,18.9997366 C144.252712,19.606078 144.968517,20.0825659 145.8292,20.4345659 C146.689883,20.7833463 147.624615,21.0913463 148.634468,21.3585659 C149.645395,21.623639 150.579054,21.9799317 151.438663,22.4263707 C152.30042,22.8717366 153.017298,23.4931024 153.589298,24.2904683 C154.16559,25.086761 154.451054,26.1878341 154.451054,27.5904683 C154.451054,28.6089073 154.261102,29.5146634 153.87798,30.2991512 C153.493785,31.0857854 152.978663,31.750078 152.332615,32.2920293 C151.68442,32.8339805 150.934273,33.2417854 150.084322,33.5186634 C149.232224,33.7933951 148.352224,33.9339805 147.438956,33.9339805 C145.949395,33.9339805 144.581102,33.6732 143.328712,33.1527122 C142.073102,32.630078 141.001005,31.7554439 140.1092,30.5234439 L142.114956,29.1841268 Z" id="Fill-12" fill="#0F2A45" mask="url(#mask-2)"></path>
                <path d="M160.08638,37.9183415 C159.722576,38.8734634 159.225698,39.6289756 158.585015,40.1816585 C157.947551,40.7354146 157.098673,41.0101463 156.035161,41.0101463 C155.717502,41.0101463 155.400917,40.9822439 155.082185,40.9296585 C154.763454,40.876 154.451161,40.8062439 154.153893,40.7236098 L154.348137,38.9378537 C154.625015,39.0226341 154.906185,39.1020488 155.190576,39.1771707 C155.478185,39.2512195 155.771161,39.2887805 156.067356,39.2887805 C156.408624,39.2887805 156.710185,39.2125854 156.977405,39.0644878 C157.243551,38.9153171 157.471063,38.7253659 157.662088,38.4903415 C157.852039,38.2574634 158.01838,37.9977561 158.15682,37.7112195 C158.295259,37.4236098 158.415454,37.1327805 158.522771,36.834439 L159.861015,33.4239024 L153.868429,18.6323902 L156.004039,18.6323902 L160.8816,31.032878 L165.63038,18.6323902 L167.672624,18.6323902 L160.08638,37.9183415 Z" id="Fill-13" fill="#0F2A45" mask="url(#mask-2)"></path>
                <path d="M169.138146,29.5992293 C169.539512,30.3847902 170.135122,30.9846927 170.921756,31.4000098 C171.709463,31.8131805 172.537951,32.0203024 173.409366,32.0203024 C173.811805,32.0203024 174.215317,31.9569854 174.618829,31.829278 C175.025561,31.7015707 175.384,31.521278 175.702732,31.2884 C176.021463,31.0533756 176.283317,30.7722049 176.485073,30.4416683 C176.685756,30.113278 176.78878,29.7365951 176.78878,29.3105463 C176.78878,28.6323024 176.570927,28.1214732 176.136293,27.7823512 C175.698439,27.4421561 175.164,27.1760098 174.523317,26.9839122 C173.885854,26.7928878 173.185073,26.6286927 172.420976,26.4913268 C171.655805,26.3528878 170.952878,26.1393268 170.318634,25.8517171 C169.679024,25.5662537 169.140293,25.165961 168.705659,24.657278 C168.269951,24.1464488 168.052098,23.425278 168.052098,22.4894732 C168.052098,21.7672293 168.201268,21.1404976 168.497463,20.6082049 C168.796878,20.0769854 169.185366,19.6359122 169.664,19.2871317 C170.140488,18.9351317 170.677073,18.6754244 171.27161,18.5047902 C171.86722,18.3352293 172.471415,18.2493756 173.091707,18.2493756 C174.302244,18.2493756 175.346439,18.4736683 176.227512,18.9190341 C177.109659,19.3654732 177.796488,20.0684 178.285854,21.023522 L176.564488,22.0430341 C176.204976,21.3626439 175.751024,20.8485951 175.208,20.4976683 C174.668195,20.1467415 173.958829,19.9718146 173.091707,19.9718146 C172.748293,19.9718146 172.392,20.0254732 172.022829,20.1306439 C171.649366,20.237961 171.31239,20.3860585 171.016195,20.5781561 C170.718927,20.7681073 170.471024,21.0138634 170.269268,21.3089854 C170.064293,21.6073268 169.964488,21.947522 169.964488,22.3295707 C169.964488,22.9895707 170.184488,23.4778634 170.618049,23.7965951 C171.053756,24.1164 171.590341,24.3653756 172.231024,24.5456683 C172.867415,24.725961 173.569268,24.8804976 174.332293,25.009278 C175.098537,25.1369854 175.799317,25.3430341 176.43678,25.6284976 C177.075317,25.9161073 177.611902,26.3314244 178.04761,26.8723024 C178.480098,27.4153268 178.700098,28.1847902 178.700098,29.1839122 C178.700098,29.9490829 178.55522,30.6133756 178.268683,31.1757171 C177.982146,31.7391317 177.58722,32.2134732 177.090341,32.5944488 C176.591317,32.9775707 176.021463,33.2641073 175.384,33.4562049 C174.749756,33.6461561 174.076878,33.7416683 173.375024,33.7416683 C172.102244,33.7416683 170.93678,33.4980585 169.885073,33.0076195 C168.834439,32.5193268 168.020976,31.7670341 167.446829,30.7453756 L169.138146,29.5992293 Z" id="Fill-14" fill="#0F2A45" mask="url(#mask-2)"></path>
                <path d="M188.291668,20.354078 L184.086985,20.354078 L184.086985,29.9492976 C184.086985,30.6071512 184.267278,31.1179805 184.63001,31.4785659 C184.989522,31.8402244 185.487473,32.0205171 186.12601,32.0205171 C186.486595,32.0205171 186.85362,31.9722244 187.228156,31.8777854 C187.5984,31.7812 187.95362,31.6599317 188.291668,31.510761 L188.450498,33.2321268 C188.090985,33.3598341 187.677815,33.4768098 187.209912,33.5830537 C186.743083,33.6882244 186.327766,33.7418829 185.968254,33.7418829 C185.285717,33.7418829 184.702985,33.6399317 184.214693,33.4392488 C183.72318,33.2374927 183.332546,32.9670537 183.036351,32.6257854 C182.739083,32.2866634 182.519083,31.8874439 182.380644,31.4313463 C182.243278,30.9741756 182.175668,30.4805171 182.175668,29.9492976 L182.175668,20.354078 L178.985132,20.354078 L178.985132,18.6327122 L182.175668,18.6327122 L182.175668,14.3926146 L184.086985,14.3926146 L184.086985,18.6327122 L188.291668,18.6327122 L188.291668,20.354078 Z" id="Fill-15" fill="#0F2A45" mask="url(#mask-2)"></path>
                <path d="M201.200088,24.7531122 C201.200088,24.0952585 201.065941,23.4781854 200.803015,22.904039 C200.536868,22.3298927 200.17199,21.8265756 199.716966,21.3908683 C199.259795,20.9540878 198.717844,20.6085268 198.091112,20.3541854 C197.465454,20.0987707 196.801161,19.9710634 196.099307,19.9710634 C195.057259,19.9710634 194.193356,20.1846244 193.501161,20.6085268 C192.811112,21.0345756 192.263795,21.5217951 191.858137,22.074478 C191.456771,22.6282341 191.171307,23.1648195 190.9996,23.6842341 C190.827893,24.2057951 190.745259,24.563161 190.745259,24.7531122 L201.200088,24.7531122 Z M202.667112,30.5868683 C201.922332,31.7126244 201.003698,32.5185756 199.906917,33.0068683 C198.813356,33.4973073 197.606039,33.7419902 196.289259,33.7419902 C195.164576,33.7419902 194.14399,33.5498927 193.231795,33.1678439 C192.315307,32.784722 191.528673,32.2492098 190.871893,31.559161 C190.211893,30.868039 189.708576,30.0502829 189.358722,29.1048195 C189.008868,28.1593561 188.832868,27.1119415 188.832868,25.964722 C188.832868,24.8604293 189.011015,23.8387707 189.37482,22.904039 C189.734332,21.9693073 190.241941,21.1547707 190.903015,20.4668683 C191.561941,19.7746732 192.337844,19.232722 193.231795,18.8399415 C194.1236,18.4460878 195.109844,18.2496976 196.193746,18.2496976 C197.319502,18.2496976 198.316478,18.4460878 199.177161,18.8399415 C200.035698,19.232722 200.759015,19.7532098 201.34282,20.4014049 C201.926624,21.0496 202.370917,21.7890146 202.667112,22.6164293 C202.966527,23.4449171 203.112478,24.2841366 203.112478,25.1362341 L203.112478,26.474478 L190.745259,26.474478 C190.745259,26.8779902 190.8236,27.3941854 190.983502,28.0209171 C191.142332,28.6465756 191.432088,29.2572098 191.858137,29.8538927 C192.284185,30.4484293 192.855112,30.9581854 193.564478,31.3820878 C194.27599,31.8081366 195.195698,32.0195512 196.3236,32.0195512 C197.299112,32.0195512 198.247795,31.7877463 199.15999,31.3187707 C200.071112,30.8530146 200.775112,30.2155512 201.262332,29.4063805 L202.667112,30.5868683 Z" id="Fill-16" fill="#0F2A45" mask="url(#mask-2)"></path>
                <path d="M204.894371,22.7770829 C204.894371,22.5002049 204.881493,22.1664488 204.860029,21.7725951 C204.840712,21.3787415 204.825688,20.9805951 204.810663,20.5781561 C204.802078,20.1735707 204.787054,19.7958146 204.766663,19.445961 C204.740907,19.093961 204.733395,18.8245951 204.733395,18.6324976 L206.645785,18.6324976 C206.665102,19.1851805 206.683346,19.7164 206.693005,20.2272293 C206.703737,20.7369854 206.730566,21.0653756 206.77242,21.2145463 L206.869005,21.2145463 C207.252127,20.407522 207.888517,19.7110341 208.782468,19.1261561 C209.674273,18.5423512 210.716322,18.2493756 211.906468,18.2493756 C212.8852,18.2493756 213.775932,18.5004976 214.581883,18.999522 C215.392127,19.4974732 215.975932,20.3109366 216.33759,21.4366927 C216.80442,20.3324 217.497688,19.5253756 218.424907,19.0156195 C219.348907,18.5047902 220.3212,18.2493756 221.339639,18.2493756 C222.489005,18.2493756 223.423737,18.4318146 224.144907,18.7924 C224.869298,19.1540585 225.437005,19.6262537 225.851249,20.2089854 C226.26442,20.7949366 226.553102,21.469961 226.711932,22.2329854 C226.871834,22.9992293 226.951249,23.7858634 226.951249,24.5928878 L226.951249,33.3596195 L225.037785,33.3596195 L225.037785,24.6894732 C225.037785,24.0949366 224.986273,23.5154244 224.880029,22.9520098 C224.771639,22.3896683 224.584907,21.8842049 224.32198,21.4366927 C224.055834,20.9913268 223.682371,20.6350341 223.205883,20.3688878 C222.728322,20.1048878 222.10481,19.9718146 221.339639,19.9718146 C220.447834,19.9718146 219.717005,20.1370829 219.140712,20.4665463 C218.567639,20.7949366 218.116907,21.2145463 217.785298,21.7253756 C217.456907,22.2329854 217.225102,22.7878146 217.086663,23.3823512 C216.948224,23.977961 216.879541,24.5403024 216.879541,25.0704488 L216.879541,33.3596195 L214.967151,33.3596195 L214.967151,24.4973756 C214.967151,23.1376683 214.71281,22.0430341 214.217005,21.2145463 C213.71798,20.3860585 212.946371,19.9718146 211.906468,19.9718146 C211.202468,19.9718146 210.539249,20.0941561 209.91359,20.338839 C209.286859,20.5824488 208.744907,20.954839 208.287737,21.4538634 C207.831639,21.953961 207.466761,22.5806927 207.204907,23.3340585 C206.937688,24.0884976 206.803541,24.9770829 206.803541,25.9965951 L206.803541,33.3596195 L204.894371,33.3596195 L204.894371,22.7770829 Z" id="Fill-17" fill="#0F2A45" mask="url(#mask-2)"></path>
                <path d="M229.814146,29.5992293 C230.219805,30.3847902 230.814341,30.9846927 231.599902,31.4000098 C232.38761,31.8131805 233.215024,32.0203024 234.085366,32.0203024 C234.489951,32.0203024 234.89561,31.9569854 235.296976,31.829278 C235.701561,31.7015707 236.065366,31.521278 236.384098,31.2884 C236.700683,31.0533756 236.959317,30.7722049 237.165366,30.4416683 C237.364976,30.113278 237.465854,29.7365951 237.465854,29.3105463 C237.465854,28.6323024 237.248,28.1214732 236.812293,27.7823512 C236.376585,27.4421561 235.84,27.1760098 235.20361,26.9839122 C234.564,26.7928878 233.865366,26.6286927 233.096976,26.4913268 C232.332878,26.3528878 231.634244,26.1393268 230.994634,25.8517171 C230.358244,25.5662537 229.821659,25.165961 229.385951,24.657278 C228.950244,24.1464488 228.73239,23.425278 228.73239,22.4894732 C228.73239,21.7672293 228.881561,21.1404976 229.178829,20.6082049 C229.476098,20.0769854 229.863512,19.6359122 230.34,19.2871317 C230.821854,18.9351317 231.357366,18.6754244 231.952976,18.5047902 C232.548585,18.3352293 233.15278,18.2493756 233.76878,18.2493756 C234.978244,18.2493756 236.026732,18.4736683 236.907805,18.9190341 C237.791024,19.3654732 238.475707,20.0684 238.961854,21.023522 L237.24478,22.0430341 C236.880976,21.3626439 236.431317,20.8485951 235.888293,20.4976683 C235.344195,20.1467415 234.640195,19.9718146 233.76878,19.9718146 C233.428585,19.9718146 233.072293,20.0254732 232.698829,20.1306439 C232.329659,20.237961 231.992683,20.3860585 231.696488,20.5781561 C231.400293,20.7681073 231.150244,21.0138634 230.947415,21.3089854 C230.744585,21.6073268 230.64478,21.947522 230.64478,22.3295707 C230.64478,22.9895707 230.862634,23.4778634 231.299415,23.7965951 C231.734049,24.1164 232.271707,24.3653756 232.907024,24.5456683 C233.547707,24.725961 234.245268,24.8804976 235.010439,25.009278 C235.777756,25.1369854 236.477463,25.3430341 237.116,25.6284976 C237.75239,25.9161073 238.290049,26.3314244 238.725756,26.8723024 C239.16039,27.4153268 239.378244,28.1847902 239.378244,29.1839122 C239.378244,29.9490829 239.236585,30.6133756 238.948976,31.1757171 C238.662439,31.7391317 238.268585,32.2134732 237.769561,32.5944488 C237.26839,32.9775707 236.700683,33.2641073 236.065366,33.4562049 C235.425756,33.6461561 234.756098,33.7416683 234.055317,33.7416683 C232.78039,33.7416683 231.618146,33.4980585 230.564293,33.0076195 C229.513659,32.5193268 228.701268,31.7670341 228.128195,30.7453756 L229.814146,29.5992293 Z" id="Fill-18" fill="#0F2A45" mask="url(#mask-2)"></path>
                <path d="M42.2985951,19.8207122 C41.2554732,19.8207122 40.4087415,20.6685171 40.4087415,21.7105659 C40.4087415,22.2890049 40.675961,22.836322 41.1320585,23.194761 C40.8401561,26.7888098 39.5587902,30.2229561 37.439278,33.1162244 L37.3748878,33.1816878 C33.9224976,37.8811024 28.6006439,40.7797366 22.7464976,41.1381756 C21.9866927,41.184322 21.265522,41.184322 20.4434732,41.1360293 C14.6183024,40.7797366 9.29537561,37.8811024 5.83761951,33.176322 C5.81186341,33.1430537 5.78932683,33.1291024 5.78932683,33.1344683 C3.3188878,29.7625659 2.01283902,25.7725171 2.01283902,21.5935902 C2.01283902,10.7974927 10.7967415,2.01466341 21.5939122,2.01466341 C27.0821073,2.01466341 32.3545951,4.34559024 36.0441561,8.39573659 L36.0720585,8.43759024 C36.0838634,8.45046829 37.2064,9.81232195 36.1493268,10.8672488 L22.8548878,24.162761 L22.8237659,24.1917366 C22.3987902,24.6167122 21.9791805,24.8249073 21.535961,24.8249073 C20.7729366,24.822761 20.1515707,24.206761 20.1419122,24.1960293 L13.5966439,17.6539805 C13.7297171,17.3899805 13.7973268,17.1088098 13.7973268,16.8169073 C13.7973268,15.7737854 12.949522,14.9249073 11.9064,14.9249073 C11.1283512,14.9249073 10.4404488,15.3928098 10.159278,16.104322 C10.1238634,16.1772976 10.1077659,16.2470537 10.0927415,16.3146634 C10.0423024,16.4917366 10.0165463,16.6559317 10.0165463,16.8169073 C10.0165463,17.8117366 10.8074732,18.6412976 11.7947902,18.7013951 L18.7242537,25.6265659 L18.8444488,25.7413951 C19.1921561,26.0526146 20.1891317,26.8285171 21.5424,26.8413951 C22.453522,26.8413951 23.315278,26.470078 24.0986927,25.7446146 C24.1169366,25.7338829 24.1459122,25.7188585 24.1834732,25.6855902 L37.5734244,12.2934927 C39.3945951,10.4701756 38.4534244,8.20256585 37.6689366,7.20773659 L37.6667902,7.11866341 L37.5991805,7.1047122 L37.5852293,7.0896878 C33.4964488,2.5834439 27.6680585,0.000321951219 21.5939122,0.000321951219 C9.68708293,0.000321951219 -0.000429268293,9.68783415 -0.000429268293,21.5935902 C-0.000429268293,33.0099805 8.9219122,42.4753463 20.2782049,43.139639 L20.3533268,43.1503707 C20.7793756,43.1729073 21.1957659,43.1868585 21.6067902,43.1868585 L21.6196683,43.1868585 C22.0264,43.1868585 22.4331317,43.1739805 22.9053268,43.146078 C33.5651317,42.5182732 42.2417171,34.0412976 43.1324488,23.4072488 C43.7784976,23.0895902 44.1905951,22.4360293 44.1905951,21.7105659 C44.1905951,20.6685171 43.3417171,19.8207122 42.2985951,19.8207122" id="Fill-19" fill="#00CCD3" mask="url(#mask-2)"></path>
                <path d="M39.6486146,14.1095122 C38.6054927,14.1095122 37.7576878,14.9583902 37.7576878,16.000439 C37.7576878,16.1796585 37.7855902,16.3578049 37.8413951,16.5413171 L25.2058829,29.156439 C24.0672488,30.2929268 22.8567122,30.8702927 21.5807122,30.8702927 C19.4354439,30.8552683 17.776322,29.1736098 17.7559317,29.1532195 L13.7326146,25.1320488 C13.7766146,24.9732195 13.798078,24.8197561 13.798078,24.6695122 C13.798078,23.6274634 12.9502732,22.7796585 11.906078,22.7796585 C10.8640293,22.7796585 10.0172976,23.6274634 10.0172976,24.6695122 C10.0172976,25.711561 10.8640293,26.5582927 11.906078,26.5582927 C12.0219805,26.5582927 12.144322,26.5454146 12.2709561,26.5185854 L16.3157366,30.5633659 C16.4069561,30.6578049 18.568322,32.8567317 21.5334927,32.883561 C21.5581756,32.8857073 21.5839317,32.8857073 21.610761,32.8857073 C23.4104683,32.8857073 25.0985659,32.1098049 26.6289073,30.5805366 L39.3610049,17.8677561 C39.4618829,17.8849268 39.5573951,17.8913659 39.6486146,17.8913659 C40.6906634,17.8913659 41.5384683,17.043561 41.5384683,16.000439 C41.5384683,14.9583902 40.6906634,14.1095122 39.6486146,14.1095122" id="Fill-20" fill="#54E188" mask="url(#mask-2)"></path>
            </g>
        </g>
    </g>
</svg>